<?xml version="1.0" encoding="utf-8"?>
<!-- Generator: Adobe Illustrator 16.0.0, SVG Export Plug-In . SVG Version: 6.00 Build 0)  -->
<!DOCTYPE svg PUBLIC "-//W3C//DTD SVG 1.0//EN" "http://www.w3.org/TR/2001/REC-SVG-20010904/DTD/svg10.dtd">
<svg version="1.0" id="Layer_1" xmlns="http://www.w3.org/2000/svg" xmlns:xlink="http://www.w3.org/1999/xlink" x="0px" y="0px"
	 width="800px" height="600px" viewBox="0 0 800 600" enable-background="new 0 0 800 600" xml:space="preserve">
<path d="M183.315,149.706v-27.22c0-3.686-1.347-6.875-4.041-9.569c-2.693-2.693-5.883-4.041-9.569-4.041h-27.22
	c-3.686,0-6.875,1.347-9.569,4.041c-2.694,2.694-4.041,5.883-4.041,9.569v27.22c0,3.686,1.347,6.875,4.041,9.569
	c2.694,2.694,5.883,4.041,9.569,4.041h27.22c3.686,0,6.875-1.347,9.569-4.041C181.968,156.581,183.315,153.391,183.315,149.706z
	 M183.315,258.582v-27.219c0-3.686-1.347-6.875-4.041-9.569c-2.693-2.693-5.883-4.041-9.569-4.041h-27.22
	c-3.686,0-6.875,1.347-9.569,4.041c-2.694,2.694-4.041,5.883-4.041,9.569v27.219c0,3.686,1.347,6.876,4.041,9.569
	s5.883,4.04,9.569,4.04h27.22c3.686,0,6.875-1.347,9.569-4.04C181.968,265.458,183.315,262.268,183.315,258.582z M183.315,367.458
	v-27.219c0-3.686-1.347-6.876-4.041-9.568c-2.693-2.694-5.883-4.041-9.569-4.041h-27.22c-3.686,0-6.875,1.347-9.569,4.041
	c-2.694,2.692-4.041,5.883-4.041,9.568v27.219c0,3.687,1.347,6.876,4.041,9.569c2.694,2.694,5.883,4.041,9.569,4.041h27.22
	c3.686,0,6.875-1.347,9.569-4.041C181.968,374.334,183.315,371.145,183.315,367.458z M673.259,149.706v-27.22
	c0-3.686-1.347-6.875-4.039-9.569c-2.693-2.693-5.884-4.041-9.569-4.041H251.363c-3.686,0-6.875,1.347-9.569,4.041
	c-2.693,2.694-4.041,5.883-4.041,9.569v27.22c0,3.686,1.347,6.875,4.041,9.569c2.694,2.694,5.883,4.041,9.569,4.041H659.65
	c3.686,0,6.876-1.347,9.569-4.041C671.912,156.581,673.259,153.391,673.259,149.706z M673.259,258.582v-27.219
	c0-3.686-1.347-6.875-4.039-9.569c-2.693-2.693-5.884-4.041-9.569-4.041H251.363c-3.686,0-6.875,1.347-9.569,4.041
	c-2.693,2.694-4.041,5.883-4.041,9.569v27.219c0,3.686,1.347,6.876,4.041,9.569c2.694,2.693,5.883,4.04,9.569,4.04H659.65
	c3.686,0,6.876-1.347,9.569-4.04C671.912,265.458,673.259,262.268,673.259,258.582z M673.259,367.458v-27.219
	c0-3.686-1.347-6.876-4.039-9.568c-2.693-2.694-5.884-4.041-9.569-4.041H251.363c-3.686,0-6.875,1.347-9.569,4.041
	c-2.693,2.692-4.041,5.883-4.041,9.568v27.219c0,3.687,1.347,6.876,4.041,9.569c2.694,2.694,5.883,4.041,9.569,4.041H659.65
	c3.686,0,6.876-1.347,9.569-4.041C671.912,374.334,673.259,371.145,673.259,367.458z M727.698,68.048v353.85
	c0,3.686-1.347,6.876-4.04,9.568c-2.694,2.693-5.884,4.04-9.57,4.04H88.048c-3.686,0-6.875-1.347-9.569-4.04
	c-2.694-2.692-4.04-5.883-4.04-9.568V68.048c0-3.686,1.346-6.875,4.04-9.569s5.883-4.041,9.569-4.041h626.04
	c3.687,0,6.876,1.347,9.57,4.041C726.352,61.172,727.698,64.362,727.698,68.048z M782.137,530.773V68.048
	c0-18.713-6.663-34.733-19.99-48.059C748.821,6.663,732.801,0,714.088,0H88.048C69.334,0,53.315,6.663,39.989,19.989
	C26.663,33.315,20,49.334,20,68.048v462.726c0,18.714,6.663,34.733,19.989,48.059c13.327,13.326,29.346,19.989,48.059,19.989h626.04
	c18.713,0,34.733-6.663,48.059-19.989C775.474,565.507,782.137,549.487,782.137,530.773z"/>
</svg>
