<?xml version="1.0" encoding="utf-8"?>
<!-- Generator: Adobe Illustrator 16.0.0, SVG Export Plug-In . SVG Version: 6.00 Build 0)  -->
<!DOCTYPE svg PUBLIC "-//W3C//DTD SVG 1.1//EN" "http://www.w3.org/Graphics/SVG/1.1/DTD/svg11.dtd">
<svg version="1.1" id="Layer_1" xmlns="http://www.w3.org/2000/svg" xmlns:xlink="http://www.w3.org/1999/xlink" x="0px" y="0px"
	 width="595.354px" height="595.354px" viewBox="1 0 595.354 595.354" enable-background="new 1 0 595.354 595.354"
	 xml:space="preserve">
<path fill="#FFFFFF" d="M298.677,595.354c54.005,0,103.813-13.307,149.419-39.92c45.608-26.617,81.719-62.729,108.335-108.337
	c26.617-45.608,39.923-95.414,39.923-149.419s-13.306-103.812-39.923-149.42c-26.616-45.608-62.727-81.72-108.335-108.335
	C402.49,13.308,352.682,0,298.677,0s-103.813,13.308-149.42,39.922c-45.608,26.615-81.72,62.727-108.335,108.335
	C14.308,193.866,1,243.672,1,297.677s13.308,103.811,39.922,149.419c26.615,45.608,62.727,81.72,108.335,108.337
	C194.864,582.047,244.672,595.354,298.677,595.354z M404.88,393.415c-0.517-0.259-1.744-1.486-3.683-3.684
	c-1.938-2.195-3.681-3.423-5.232-3.682c0.517,0,1.098,0.646,1.744,1.938c0.647,1.292,1.292,2.713,1.939,4.263
	c0.646,1.552,1.098,2.456,1.356,2.714c1.55,1.809,4.393,3.747,8.526,5.814c3.618,1.55,10.336,3.101,20.155,4.651
	c8.786,2.066,15.375,0.646,19.769-4.264c-0.517,0.516,0.711,2.195,3.682,5.038c2.972,2.842,4.846,4.393,5.621,4.651
	c0.774,0.517,2.712,1.099,5.813,1.744c3.102,0.646,5.039,1.614,5.813,2.907l0.775,8.526c-3.101-0.258-5.361,0.647-6.783,2.714
	c-1.421,2.066-2.26,4.78-2.52,8.141c0-0.518-0.774-1.552-2.325-3.102c0,1.809-0.582,2.842-1.744,3.102
	c-1.162,0.258-2.648,0.129-4.457-0.389c-1.81-0.517-2.973-0.646-3.489-0.388c-2.583,0.776-4.521,1.744-5.813,2.907
	s-2.325,3.294-3.102,6.396c-0.774,3.102-1.291,5.039-1.55,5.813c-0.517,1.292-1.744,2.648-3.682,4.069
	c-1.938,1.423-3.166,2.778-3.683,4.071c-0.258,0.517-0.581,1.227-0.969,2.132c-0.388,0.904-0.775,1.743-1.163,2.52
	c-0.388,0.774-0.904,1.484-1.55,2.132c-0.647,0.646-1.356,0.968-2.132,0.968c-0.776,0-1.681-0.646-2.714-1.938
	c-1.033-1.291-2.003-2.585-2.907-3.876c-0.903-1.292-1.485-1.938-1.744-1.938c-0.775,0.517-1.55,0.71-2.325,0.58
	c-0.774-0.129-1.356-0.258-1.744-0.387s-0.97-0.517-1.744-1.163c-0.775-0.646-1.421-1.099-1.938-1.356
	c-0.775-0.517-1.874-0.904-3.295-1.163c-1.422-0.258-2.52-0.517-3.295-0.774c3.876,1.291,3.747,2.712-0.387,4.264
	c-2.585,1.033-4.652,1.421-6.203,1.162c2.326,1.033,3.295,2.584,2.908,4.651c-0.389,2.066-1.486,3.876-3.294,5.427h1.938
	c-0.259,1.033-1.357,2.132-3.295,3.294c-1.938,1.163-4.199,2.262-6.783,3.295s-4.263,1.81-5.039,2.326
	c-2.066,1.291-6.46,2.52-13.178,3.682c-6.718,1.163-10.981,1.227-12.79,0.193c-1.292-1.55-1.874-2.906-1.744-4.069
	c0.129-1.163,0.646-2.973,1.55-5.427c0.904-2.454,1.356-4.069,1.356-4.845c0.259-1.551-0.452-3.229-2.132-5.038
	c-1.679-1.81-2.52-3.36-2.52-4.651c0-1.81,1.809-3.812,5.427-6.009c3.618-2.195,4.909-4.974,3.876-8.333
	c-0.776-2.066-2.842-4.135-6.201-6.201c-3.359-2.066-5.427-3.618-6.202-4.651c-1.292-2.066-1.486-4.457-0.582-7.171
	c0.904-2.713,2.261-4.845,4.069-6.396c0.517-0.517,0.711-1.033,0.582-1.551c-0.129-0.516-0.582-1.098-1.357-1.744
	c-0.774-0.646-1.485-1.162-2.132-1.55c-0.646-0.388-1.485-0.84-2.52-1.357l-1.162-0.774c-2.842-1.292-5.491-0.517-7.946,2.326
	c-2.455,2.842-4.199,6.201-5.232,10.076c-1.809,6.461-3.877,10.337-6.201,11.629c-5.944,2.067-9.69,1.938-11.242-0.388
	c-1.291,3.359-6.589,6.719-15.892,10.077c-6.459,2.326-13.953,2.843-22.48,1.551c1.551,0.259,1.551,2.196,0,5.814
	c-1.809,3.876-4.264,5.426-7.364,4.651c0.774,1.55,1.291,3.811,1.55,6.783c0.259,2.971,0.388,4.715,0.388,5.232
	c0.774,3.359,2.326,6.33,4.651,8.915c0.258,0.258,1.162,1.356,2.713,3.294c1.55,1.938,2.777,3.682,3.682,5.232
	s0.968,2.326,0.194,2.326c9.043-1.035,15.504,0.388,19.379,4.264c1.292,1.292,2.778,3.487,4.458,6.589
	c1.68,3.101,3.036,5.297,4.071,6.589c2.326,1.55,4.133,2.261,5.426,2.132c1.292-0.129,3.166-0.84,5.621-2.132
	s4.329-1.938,5.62-1.938c3.618-0.259,5.621,1.162,6.008,4.264c0.387,3.101-0.582,5.686-2.907,7.752
	c3.1-0.26,3.488,1.939,1.162,6.588c-1.291,1.812-2.325,2.973-3.1,3.49c-3.101,1.031-6.589,0.388-10.466-1.938
	c-2.066-1.034-1.809-2.067,0.776-3.103c-0.259,0.26-1.486-1.096-3.682-4.07c-2.197-2.97-4.328-5.232-6.396-6.781
	c-2.067-1.55-4.135-0.904-6.202,1.937c-0.259,0.26-0.968,2.003-2.131,5.233c-1.163,3.229-2.391,4.975-3.682,5.232
	c-2.068,0-4.134-1.937-6.202-5.812c0.775,2.067-0.646,4.006-4.264,5.812c-3.617,1.812-6.718,2.843-9.302,3.103
	c4.91,3.1,3.876,6.588-3.1,10.466c-1.809,1.031-4.458,1.679-7.947,1.937c-3.488,0.258-6.007-0.258-7.557-1.549
	c-1.292-1.812-2.003-3.296-2.133-4.457c-0.129-1.163,0.518-2.199,1.939-3.103c1.421-0.903,2.777-1.615,4.069-2.131
	c1.292-0.518,2.777-1.035,4.458-1.551c1.679-0.516,2.777-0.903,3.294-1.163c3.618-2.585,4.651-4.394,3.101-5.428
	c-0.517-0.257-1.615-0.709-3.294-1.356c-1.68-0.644-3.166-1.228-4.458-1.743c-1.291-0.516-2.066-1.036-2.324-1.551
	c-0.776-1.034-0.776-2.843,0-5.426c0.774-2.585,0.517-4.393-0.776-5.427c-1.292,1.292-2.455,3.554-3.489,6.782
	c-1.034,3.23-1.938,5.361-2.712,6.396c1.809-2.326-1.422-3.103-9.69-2.326l-3.875,0.388c-1.035,0-3.101-0.258-6.203-0.776
	c-3.1-0.515-5.749-0.646-7.945-0.388c-2.197,0.261-3.94,1.291-5.233,3.103c-1.033,2.067-1.033,4.649,0,7.752
	c0.259,1.033,0.776,1.291,1.55,0.775c-1.034,0.775-2.455,2.003-4.264,3.682c-1.809,1.679-3.1,2.778-3.875,3.294
	c-11.887-3.876-24.031-9.173-36.435-15.891c1.55-0.26,3.101-0.128,4.651,0.388c1.292,0.516,2.971,1.355,5.039,2.519
	c2.066,1.163,3.359,1.875,3.875,2.131c8.786,3.617,14.213,4.523,16.279,2.714l1.938,1.939c3.618-4.136,6.201-7.363,7.752-9.69
	c-1.809,1.033-5.686,1.163-11.628,0.388c-5.168-1.551-8.012-3.103-8.528-4.653c1.809-3.099,2.456-5.425,1.939-6.975
	c-1.034,0.774-2.52,2.066-4.457,3.876c-1.939,1.809-3.812,3.23-5.621,4.262c-1.809,1.036-3.747,1.679-5.813,1.939
	c-4.134,0-6.977-0.128-8.528-0.388c-37.726-20.672-68.088-49.354-91.086-86.048c1.809-1.809,3.36-2.842,4.651-3.101
	c1.035-0.258,1.68-1.422,1.939-3.488c0.258-2.066,0.581-3.488,0.968-4.264s1.874-0.388,4.458,1.164
	c2.326-2.068,2.713-4.522,1.163-7.365c0.258,0.258,5.942-3.229,17.054-10.466c4.91-4.393,7.622-7.105,8.14-8.139
	c0.774-2.843-0.518-5.168-3.877-6.978c-0.258,0.517-1.421,1.68-3.488,3.488c-2.068,1.809-3.23,2.325-3.489,1.551
	c-0.774-1.292-0.711-3.683,0.194-7.171c0.904-3.488,2.262-5.104,4.069-4.845c-1.808,0-3.036-2.066-3.682-6.201
	s-0.968-8.721-0.968-13.76s-0.13-8.075-0.388-9.109l0.774-0.388c-0.774-3.101-0.064-7.559,2.131-13.372
	c2.197-5.814,4.976-8.333,8.334-7.559c-3.359-0.774-0.776-6.33,7.751-16.667c1.551-2.066,2.585-3.229,3.102-3.487
	c0.775-0.518,2.326-1.485,4.651-2.908c2.325-1.421,4.263-2.713,5.813-3.875c1.551-1.162,2.842-2.52,3.876-4.07
	c1.034-1.292,2.326-4.198,3.876-8.721c1.55-4.522,3.359-7.559,5.427-9.109c-0.517-1.551,0.709-4.134,3.682-7.752
	c2.971-3.618,4.329-6.589,4.07-8.915c-0.259,0-0.582-0.129-0.969-0.388c-0.388-0.258-0.71-0.388-0.969-0.388
	c0.775-1.809,2.778-3.617,6.007-5.426c3.23-1.809,5.233-3.489,6.009-5.039c0.258-0.776,0.517-2.067,0.774-3.876
	c0.259-1.809,0.646-3.23,1.163-4.265c0.517-1.033,1.55-1.291,3.102-0.774c0.515,5.168-2.585,13.178-9.303,24.031
	c-3.877,6.46-6.074,10.207-6.59,11.241c-0.774,1.292-1.485,3.295-2.132,6.008c-0.646,2.713-1.227,4.586-1.744,5.62
	c0.517,0,1.292-0.194,2.326-0.582c1.034-0.387,2.132-0.839,3.295-1.356c1.162-0.517,2.132-1.033,2.906-1.55
	c0.775-0.517,1.035-0.905,0.775-1.164c-0.775-1.809-0.517-4.069,0.776-6.783c1.291-2.713,2.842-5.103,4.651-7.171
	c1.809-2.067,4.004-4.521,6.589-7.364c2.583-2.842,4.135-4.522,4.651-5.039c1.55-1.55,3.359-4.069,5.426-7.559
	c2.068-3.488,2.068-5.231,0-5.231c2.326,0,4.91-1.292,7.752-3.877c2.842-2.583,5.039-5.168,6.589-7.751
	c1.292-2.068,2.326-5.427,3.102-10.078c0.774-4.651,1.421-7.752,1.938-9.302c0.517-1.809,1.615-3.553,3.294-5.232
	c1.68-1.68,3.295-2.907,4.845-3.683l6.203-3.101c0,0,1.679-0.903,5.038-2.712c1.292-0.517,3.683-1.874,7.171-4.069
	c3.489-2.197,6.267-3.683,8.333-4.458c2.584-1.034,4.651-1.55,6.203-1.55c1.55,0,3.424,0.323,5.62,0.97
	c2.197,0.646,3.94,1.097,5.233,1.356c3.875,0.517,7.623-1.421,11.24-5.813c3.618-4.394,6.33-7.106,8.139-8.14
	c9.303-4.909,16.408-6.33,21.318-4.264c-0.517-0.259-0.453-1.227,0.194-2.907c0.646-1.679,1.679-3.682,3.102-6.007
	c1.421-2.326,2.583-4.199,3.488-5.62s1.615-2.52,2.132-3.295c1.292-1.55,3.618-3.489,6.977-5.813
	c3.359-2.327,5.685-4.265,6.977-5.815c1.55,1.033,2.455,2.197,2.713,3.488c-0.775-2.066,0.129-4.651,2.713-7.751
	c2.583-3.102,4.909-4.394,6.977-3.876c3.617,0.774,5.426,4.909,5.426,12.403c-8.01-3.876-14.342-1.55-18.992,6.977
	c0,0.259-0.324,0.97-0.97,2.132c-0.646,1.164-1.163,2.261-1.55,3.295c-0.388,1.033-0.71,2.131-0.97,3.294
	c-0.259,1.163-0.259,2.131,0,2.907c0.259,0.775,0.905,1.163,1.938,1.163c2.326,0,3.618,0.452,3.875,1.356
	c0.259,0.904,0,2.52-0.774,4.845c-0.775,2.326-1.292,4.004-1.55,5.038c-0.259,2.068-1.68,4.651-4.265,7.752
	c-2.583,3.102-4.135,5.039-4.651,5.814c-1.291-2.325-3.359-3.359-6.201-3.101c-2.842,0.259-4.909,1.421-6.202,3.488
	c0-0.258-0.194-0.969-0.582-2.132c-0.388-1.162-0.582-2.003-0.582-2.52c-3.359,0-5.297,0.13-5.813,0.388
	c0.259,0.775,0.582,3.036,0.969,6.783c0.387,3.747,0.84,6.654,1.356,8.722c0.259,1.033,0.969,2.583,2.131,4.65
	c1.164,2.068,2.132,3.94,2.908,5.621c0.774,1.679,1.291,3.295,1.55,4.845c0.259,1.55-0.323,2.777-1.744,3.682
	c-1.421,0.904-3.683,1.228-6.783,0.97c-4.91-0.259-8.269-2.843-10.078-7.753c-0.258-0.775-0.646-2.131-1.162-4.069
	s-1.164-3.424-1.938-4.458c-0.775-1.033-1.939-1.938-3.489-2.713c-1.809-0.774-4.909-1.033-9.303-0.774
	c-4.393,0.258-7.494,0.903-9.303,1.938c-3.359,2.067-6.266,5.813-8.721,11.24c-2.455,5.426-3.682,10.206-3.682,14.34
	c0,2.585,0.323,6.009,0.968,10.272c0.647,4.263,1.035,7.493,1.164,9.689c0.129,2.197-0.582,5.362-2.132,9.497
	c0.774,0.517,1.938,1.745,3.488,3.683c1.551,1.938,2.842,3.294,3.877,4.069c0.517,0.259,1.097,0.453,1.744,0.582
	c0.646,0.129,1.228,0.129,1.744,0s1.033,0.065,1.55,0.581c0.517,0.517,0.905,1.292,1.164,2.326c-0.259,0.259-0.775,0.646-1.55,1.163
	c-0.776,0.776-1.292,1.163-1.551,1.163c1.809-0.775,5.492-0.581,11.046,0.582c5.556,1.163,9.108,0.97,10.66-0.582
	c3.876-2.842,6.718-2.583,8.527,0.775c0,0.259-0.323,1.486-0.969,3.682c-0.646,2.197-0.71,3.942-0.194,5.233
	c1.292-6.977,5.039-8.139,11.24-3.488c0.775-0.775,2.778-1.421,6.008-1.939c3.23-0.516,5.491-1.162,6.783-1.938
	c0.774-0.517,1.679-1.228,2.713-2.132c1.034-0.903,1.744-1.485,2.132-1.744c0.387-0.259,1.033-0.194,1.938,0.194
	c0.904,0.388,2.003,1.228,3.294,2.52c2.584-3.618,4.134-6.718,4.651-9.302c2.842-10.336,5.298-16.021,7.364-17.054
	c1.809-0.776,3.23-1.035,4.264-0.776c1.035,0.258,1.615,1.485,1.744,3.682c0.13,2.197,0.13,4.006,0,5.427
	c-0.129,1.421-0.323,3.036-0.581,4.845l-0.388,3.1v6.977l-0.388,3.101c-3.875,0.776-6.266,2.326-7.171,4.651
	c-0.904,2.326-0.71,4.715,0.582,7.171c1.292,2.455,3.23,4.844,5.813,7.17c0.259,0.258,1.292,0.71,3.101,1.356
	c1.809,0.646,3.812,1.486,6.007,2.52c2.197,1.033,3.812,2.066,4.845,3.1c5.427,4.91,7.365,9.433,5.815,13.566
	c1.809,0,3.229,1.163,4.263,3.489c-0.259,0-0.904,0.388-1.938,1.162c-1.034,0.775-2.002,1.422-2.907,1.938
	c-0.904,0.518-1.486,0.775-1.744,0.775c2.326,1.292,2.583,3.358,0.774,6.201c1.292,0.775,2.262,2.196,2.907,4.265
	c0.646,2.066,1.615,3.358,2.907,3.875c2.326-3.101,5.039-3.358,8.139-0.775c1.809,2.067,1.938,4.135,0.388,6.201
	c1.292,1.81,3.941,3.166,7.946,4.071c4.005,0.904,6.396,2.131,7.17,3.682c1.809-0.517,2.842-0.259,3.101,0.775
	c0.259,1.033,0.388,2.583,0.388,4.651c0,2.066,0.388,3.616,1.163,4.651c1.034,1.291,2.972,2.454,5.814,3.487
	c2.843,1.035,4.522,1.681,5.039,1.938l6.589,4.263c0.774,1.035,0.774,1.552,0,1.552c4.651-0.517,8.656,0.904,12.015,4.264
	c2.585,2.842,1.81,5.427-2.325,7.751c0.775,1.551,0.388,2.778-1.162,3.683s-3.489,1.615-5.813,2.132
	c0.774,0.259,2.261,0.323,4.457,0.194c2.195-0.129,3.553,0.064,4.069,0.581c3.876,2.584,2.972,4.651-2.713,6.202
	C417.154,399.358,411.599,397.807,404.88,393.415z M341.701,53.488c53.231,9.303,98.58,33.722,136.047,73.257
	c-0.774,0.775-2.391,1.357-4.845,1.745c-2.454,0.387-4.069,0.839-4.845,1.356c-4.651,1.809-7.752,2.842-9.302,3.101
	c0.258,1.808-0.065,3.488-0.97,5.038c-0.904,1.551-1.938,2.713-3.101,3.489c-1.163,0.774-2.777,1.809-4.846,3.1
	c-2.066,1.292-3.487,2.197-4.264,2.713c-0.517,0.517-1.421,1.292-2.712,2.326c-1.292,1.033-2.197,1.744-2.714,2.131
	s-1.485,0.97-2.907,1.744c-1.421,0.775-2.52,1.035-3.295,0.775c-0.774-0.258-2.066-0.388-3.876-0.388l-1.162-0.388
	c-0.775-0.258-1.486-0.581-2.132-0.968c-0.646-0.388-1.357-0.776-2.132-1.164c-0.775-0.387-1.292-0.774-1.551-1.162
	c-0.258-0.388-0.258-0.71,0-0.97c-5.426,4.394-10.077,7.236-13.954,8.528c-1.291,0.258-2.712,0.968-4.263,2.132
	c-1.551,1.162-2.906,2.066-4.069,2.712c-1.163,0.647-2.455,0.841-3.876,0.582c-1.421-0.258-2.907-1.162-4.457-2.713
	c-1.292-1.292-2.068-3.23-2.326-5.814c-0.259-2.584-0.517-4.263-0.776-5.039c-1.809,1.292-1.809,3.553,0,6.783
	c1.809,3.23,2.067,5.621,0.776,7.171c-0.776,1.55-2.132,2.132-4.07,1.744c-1.939-0.388-3.489-0.969-4.651-1.744
	c-1.164-0.775-2.648-1.873-4.458-3.294s-2.972-2.262-3.489-2.52c-0.517-0.259-1.615-0.97-3.294-2.132
	c-1.68-1.163-2.778-2.133-3.295-2.907c-0.776-1.033-1.55-2.584-2.326-4.651c-0.775-2.068-1.421-3.489-1.938-4.264
	c-0.517,1.034-2.003,1.873-4.457,2.52c-2.455,0.646-3.683,1.356-3.683,2.132c0.517-2.584,1.035-7.106,1.551-13.566
	c0.517-6.46,1.162-11.37,1.938-14.729c1.809-8.011,0.259-14.212-4.651-18.605c-6.977-6.459-10.724-11.628-11.24-15.504
	c-1.034-5.685,0.517-9.043,4.651-10.077c0-1.809-1.033-4.458-3.101-7.946c-2.067-3.488-2.971-6.267-2.713-8.333
	C340.925,58.14,341.184,56.073,341.701,53.488z"/>
</svg>
