<?xml version="1.0" encoding="utf-8"?>
<!-- Generator: Adobe Illustrator 16.0.0, SVG Export Plug-In . SVG Version: 6.00 Build 0)  -->
<!DOCTYPE svg PUBLIC "-//W3C//DTD SVG 1.1//EN" "http://www.w3.org/Graphics/SVG/1.1/DTD/svg11.dtd">
<svg version="1.1"
	 id="svg2" inkscape:export-xdpi="144" inkscape:export-filename="/Users/olivier/Desktop/Blason Rouge/Blason_Vide_3D.png" inkscape:export-ydpi="144" sodipodi:docname="Depère.svg" sodipodi:version="0.32" sodipodi:docbase="L:\Héraldique" inkscape:version="0.45+0.46pre0+devel" inkscape:output_extension="org.inkscape.output.svg.inkscape" xmlns:dc="http://purl.org/dc/elements/1.1/" xmlns:cc="http://creativecommons.org/ns#" xmlns:rdf="http://www.w3.org/1999/02/22-rdf-syntax-ns#" xmlns:inkscape="http://www.inkscape.org/namespaces/inkscape" xmlns:sodipodi="http://sodipodi.sourceforge.net/DTD/sodipodi-0.dtd" xmlns:svg="http://www.w3.org/2000/svg"
	 xmlns="http://www.w3.org/2000/svg" xmlns:xlink="http://www.w3.org/1999/xlink" x="0px" y="0px" width="488.268px"
	 height="650.867px" viewBox="54.989 6.207 488.268 650.867" enable-background="new 54.989 6.207 488.268 650.867"
	 xml:space="preserve">
<sodipodi:namedview  height="660px" inkscape:current-layer="layer4" inkscape:window-y="-4" inkscape:window-height="544" inkscape:pageopacity="0.0" inkscape:pageshadow="2" inkscape:window-x="-4" inkscape:window-width="800" borderopacity="1.0" bordercolor="#666666" pagecolor="#ffffff" showgrid="false" guidetolerance="10.0" objecttolerance="10.0" inkscape:zoom="0.51818182" inkscape:cx="300" gridtolerance="10.0" inkscape:cy="330" id="base">
	</sodipodi:namedview>
<desc  id="desc4">Flag of Canton of Valais (Wallis)</desc>
<defs>
	
	
		<inkscape:perspective  inkscape:persp3d-origin="300 : 400 : 1" sodipodi:type="inkscape:persp3d" inkscape:vp_x="-50 : 600 : 1" inkscape:vp_y="0 : 1000 : 0" inkscape:vp_z="700 : 600 : 1" id="perspective83317">
		</inkscape:perspective>
	
		<inkscape:perspective  inkscape:persp3d-origin="300 : 400 : 1" sodipodi:type="inkscape:persp3d" inkscape:vp_x="-50 : 600 : 1" inkscape:vp_y="0 : 1000 : 0" inkscape:vp_z="700 : 600 : 1" id="perspective3887">
		</inkscape:perspective>
	
		<inkscape:perspective  inkscape:persp3d-origin="300 : 400 : 1" sodipodi:type="inkscape:persp3d" inkscape:vp_x="-50 : 600 : 1" inkscape:vp_y="0 : 1000 : 0" inkscape:vp_z="700 : 600 : 1" id="perspective10025">
		</inkscape:perspective>
	
		<inkscape:perspective  inkscape:persp3d-origin="300 : 400 : 1" sodipodi:type="inkscape:persp3d" inkscape:vp_x="-50 : 600 : 1" inkscape:vp_y="0 : 1000 : 0" inkscape:vp_z="700 : 600 : 1" id="perspective14654">
		</inkscape:perspective>
	
		<inkscape:perspective  inkscape:persp3d-origin="300 : 400 : 1" sodipodi:type="inkscape:persp3d" inkscape:vp_x="-50 : 600 : 1" inkscape:vp_y="0 : 1000 : 0" inkscape:vp_z="700 : 600 : 1" id="perspective10951">
		</inkscape:perspective>
	
		<inkscape:perspective  inkscape:persp3d-origin="300 : 400 : 1" sodipodi:type="inkscape:persp3d" inkscape:vp_x="-50 : 600 : 1" inkscape:vp_y="0 : 1000 : 0" inkscape:vp_z="700 : 600 : 1" id="perspective11825">
		</inkscape:perspective>
	
		<inkscape:perspective  inkscape:persp3d-origin="300 : 400 : 1" sodipodi:type="inkscape:persp3d" inkscape:vp_x="-50 : 600 : 1" inkscape:vp_y="0 : 1000 : 0" inkscape:vp_z="700 : 600 : 1" id="perspective84061">
		</inkscape:perspective>
	
		<inkscape:perspective  inkscape:persp3d-origin="300 : 400 : 1" sodipodi:type="inkscape:persp3d" inkscape:vp_x="-50 : 600 : 1" inkscape:vp_y="0 : 1000 : 0" inkscape:vp_z="700 : 600 : 1" id="perspective84523">
		</inkscape:perspective>
</defs>
<g id="layer4" sodipodi:insensitive="true" inkscape:groupmode="layer" inkscape:label="Meubles">
	<g id="g6119" transform="matrix(1.4128017,0,0,1.4128017,-1010.2739,-294.39991)">
		<g id="g6101" transform="matrix(-0.984808,-0.173648,-0.173648,0.984808,1922.739,152.8702)">
			
				<path id="path6103" sodipodi:nodetypes="cccc" fill="#65C660" stroke="#000000" stroke-width="2.7337" stroke-linejoin="round" d="
				M817.701,511.142c12.454-8.673,28.282-0.669,24.37-23.359l-1.915-1.737C821.113,480.708,825.481,497.814,817.701,511.142z"/>
			
				<path id="path6105" sodipodi:nodetypes="cc" fill="#65C660" stroke="#000000" stroke-width="2.7337" stroke-linecap="round" stroke-linejoin="round" d="
				M844.237,483.273c-4.781,6.539-12.308,15.963-17.09,18.616"/>
		</g>
		<g id="g6059" transform="matrix(-0.984808,-0.173648,-0.173648,0.984808,1929.995,126.7798)">
			
				<path id="path6061" sodipodi:nodetypes="cccc" fill="#65C660" stroke="#000000" stroke-width="2.7337" stroke-linejoin="round" d="
				M817.473,508.779c12.454-8.673,28.281-0.668,24.37-23.359l-1.915-1.736C820.883,478.346,825.251,495.452,817.473,508.779z"/>
			
				<path id="path6063" sodipodi:nodetypes="cc" fill="#65C660" stroke="#000000" stroke-width="2.7337" stroke-linecap="round" stroke-linejoin="round" d="
				M844.009,480.911c-4.782,6.539-12.31,15.962-17.091,18.616"/>
		</g>
		<g id="g6023" transform="matrix(-0.642788,-0.766045,-0.766045,0.642788,1922.572,750.7026)">
			
				<path id="path6025" sodipodi:nodetypes="cccc" fill="#65C660" stroke="#000000" stroke-width="2.7337" stroke-linejoin="round" d="
				M818.797,499.69c12.454-8.673,28.282-0.668,24.37-23.358l-1.916-1.737C822.209,469.257,826.576,486.363,818.797,499.69z"/>
			
				<path id="path6027" sodipodi:nodetypes="cc" fill="#65C660" stroke="#000000" stroke-width="2.7337" stroke-linecap="round" stroke-linejoin="round" d="
				M845.333,471.822c-4.781,6.539-12.309,15.963-17.09,18.616"/>
		</g>
		<g id="g5933" transform="matrix(-0.5,-0.866026,-0.866026,0.5,1827.329,843.9985)">
			
				<path id="path5935" sodipodi:nodetypes="cccc" fill="#65C660" stroke="#000000" stroke-width="2.7337" stroke-linejoin="round" d="
				M825.031,497.542c12.454-8.673,28.281-0.668,24.37-23.359l-1.916-1.737C828.442,467.108,832.81,484.214,825.031,497.542z"/>
			
				<path id="path5937" sodipodi:nodetypes="cc" fill="#65C660" stroke="#000000" stroke-width="2.7337" stroke-linecap="round" stroke-linejoin="round" d="
				M851.567,469.674c-4.781,6.54-12.309,15.962-17.09,18.617"/>
		</g>
		<g id="g5927" transform="matrix(2.178568e-7,1,1,-2.178568e-7,475.0921,-469.2415)">
			
				<path id="path5929" sodipodi:nodetypes="cccc" fill="#65C660" stroke="#000000" stroke-width="2.7337" stroke-linejoin="round" d="
				M826.609,505.613c12.454-8.673,28.282-0.669,24.37-23.359l-1.916-1.737C830.02,475.179,834.387,492.285,826.609,505.613z"/>
			
				<path id="path5931" sodipodi:nodetypes="cc" fill="#65C660" stroke="#000000" stroke-width="2.7337" stroke-linecap="round" stroke-linejoin="round" d="
				M853.145,477.745c-4.782,6.539-12.309,15.962-17.091,18.617"/>
		</g>
		<g id="g5909" transform="matrix(-0.642788,-0.766045,-0.766045,0.642788,1905.736,655.2995)">
			
				<path id="path5911" sodipodi:nodetypes="cccc" fill="#65C660" stroke="#000000" stroke-width="2.7337" stroke-linejoin="round" d="
				M826.15,495.447c12.454-8.674,28.282-0.669,24.37-23.359l-1.915-1.737C829.561,465.013,833.929,482.119,826.15,495.447z"/>
			
				<path id="path5913" sodipodi:nodetypes="cc" fill="#65C660" stroke="#000000" stroke-width="2.7337" stroke-linecap="round" stroke-linejoin="round" d="
				M852.686,467.579c-4.782,6.539-12.309,15.963-17.091,18.616"/>
		</g>
		<g id="g5861" transform="matrix(2.178568e-7,1,1,-2.178568e-7,470.6033,-582.6031)">
			
				<path id="path5863" sodipodi:nodetypes="cccc" fill="#65C660" stroke="#000000" stroke-width="2.7337" stroke-linejoin="round" d="
				M816.675,505.219c12.454-8.673,28.281-0.669,24.37-23.359l-1.915-1.737C820.087,474.786,824.454,491.892,816.675,505.219z"/>
			
				<path id="path5865" sodipodi:nodetypes="cc" fill="#65C660" stroke="#000000" stroke-width="2.7337" stroke-linecap="round" stroke-linejoin="round" d="
				M843.211,477.351c-4.781,6.539-12.309,15.962-17.09,18.617"/>
		</g>
		<g id="g5849" transform="matrix(0.34202,0.939693,0.939693,-0.34202,195.6531,-347.2256)">
			
				<path id="path5851" sodipodi:nodetypes="cccc" fill="#65C660" stroke="#000000" stroke-width="2.7337" stroke-linejoin="round" d="
				M819.188,506.542c12.454-8.673,28.281-0.669,24.37-23.359l-1.916-1.738C822.599,476.108,826.967,493.214,819.188,506.542z"/>
			
				<path id="path5853" sodipodi:nodetypes="cc" fill="#65C660" stroke="#000000" stroke-width="2.7337" stroke-linecap="round" stroke-linejoin="round" d="
				M845.724,478.673c-4.781,6.54-12.309,15.963-17.091,18.617"/>
		</g>
		<g id="g5855" transform="matrix(0.5,0.866026,0.866026,-0.5,105.9359,-226.8875)">
			
				<path id="path5857" sodipodi:nodetypes="cccc" fill="#65C660" stroke="#000000" stroke-width="2.7337" stroke-linejoin="round" d="
				M818.91,509.135c12.454-8.673,28.281-0.668,24.37-23.358l-1.915-1.737C822.321,478.702,826.688,495.807,818.91,509.135z"/>
			
				<path id="path5859" sodipodi:nodetypes="cc" fill="#65C660" stroke="#000000" stroke-width="2.7337" stroke-linecap="round" stroke-linejoin="round" d="
				M845.446,481.268c-4.782,6.538-12.309,15.962-17.091,18.616"/>
		</g>
		<g id="g5837" transform="matrix(0.866026,-0.5,-0.5,-0.866026,426.5606,1096.718)">
			
				<path id="path5839" sodipodi:nodetypes="cccc" fill="#65C660" stroke="#000000" stroke-width="2.7337" stroke-linejoin="round" d="
				M830.593,512.106c12.454-8.672,28.282-0.668,24.37-23.359l-1.916-1.736C834.005,481.673,838.372,498.778,830.593,512.106z"/>
			
				<path id="path5841" sodipodi:nodetypes="cc" fill="#65C660" stroke="#000000" stroke-width="2.7337" stroke-linecap="round" stroke-linejoin="round" d="
				M857.13,484.238c-4.781,6.539-12.309,15.963-17.091,18.617"/>
		</g>
		<g id="g5789" transform="matrix(0.642788,0.766045,0.766045,-0.642788,-48.79352,-51.37666)">
			
				<path id="path5791" sodipodi:nodetypes="cccc" fill="#65C660" stroke="#000000" stroke-width="2.7337" stroke-linejoin="round" d="
				M816.951,503.546c12.454-8.673,28.282-0.668,24.37-23.359l-1.915-1.737C820.362,473.113,824.729,490.219,816.951,503.546z"/>
			
				<path id="path5793" sodipodi:nodetypes="cc" fill="#65C660" stroke="#000000" stroke-width="2.7337" stroke-linecap="round" stroke-linejoin="round" d="
				M843.486,475.678c-4.781,6.539-12.309,15.963-17.09,18.617"/>
		</g>
		<g id="g5783" transform="matrix(1,-2.178568e-7,-2.178568e-7,-1,9.112591,770.7739)">
			
				<path id="path5785" sodipodi:nodetypes="cccc" fill="#65C660" stroke="#000000" stroke-width="2.7337" stroke-linejoin="round" d="
				M819.898,510.241c12.454-8.673,28.282-0.668,24.37-23.359l-1.915-1.736C823.31,479.807,827.677,496.913,819.898,510.241z"/>
			
				<path id="path5787" sodipodi:nodetypes="cc" fill="#65C660" stroke="#000000" stroke-width="2.7337" stroke-linecap="round" stroke-linejoin="round" d="
				M846.434,482.373c-4.781,6.539-12.309,15.962-17.09,18.616"/>
		</g>
		<g id="g5771" transform="matrix(-0.34202,-0.939693,-0.939693,0.34202,1605.17,937.681)">
			
				<path id="path5773" sodipodi:nodetypes="cccc" fill="#65C660" stroke="#000000" stroke-width="2.7337" stroke-linejoin="round" d="
				M833.393,506.294c12.454-8.672,28.282-0.668,24.37-23.359l-1.915-1.737C836.805,475.861,841.172,492.967,833.393,506.294z"/>
			
				<path id="path5775" sodipodi:nodetypes="cc" fill="#65C660" stroke="#000000" stroke-width="2.7337" stroke-linecap="round" stroke-linejoin="round" d="
				M859.929,478.426c-4.781,6.539-12.309,15.963-17.091,18.617"/>
		</g>
		<g id="g5765" transform="matrix(1,-2.178568e-7,-2.178568e-7,-1,5.131469,802.9305)">
			
				<path id="path5767" sodipodi:nodetypes="cccc" fill="#65C660" stroke="#000000" stroke-width="2.7337" stroke-linejoin="round" d="
				M819.55,507.423c12.454-8.673,28.281-0.668,24.37-23.359l-1.915-1.737C822.962,476.989,827.329,494.096,819.55,507.423z"/>
			
				<path id="path5769" sodipodi:nodetypes="cc" fill="#65C660" stroke="#000000" stroke-width="2.7337" stroke-linecap="round" stroke-linejoin="round" d="
				M846.086,479.555c-4.781,6.539-12.309,15.962-17.09,18.616"/>
		</g>
		<g id="g5753" transform="matrix(-2.178568e-7,-1,-1,2.178568e-7,1348.408,1182.768)">
			
				<path id="path5755" sodipodi:nodetypes="cccc" fill="#65C660" stroke="#000000" stroke-width="2.7337" stroke-linejoin="round" d="
				M829.258,508.251c12.454-8.673,28.282-0.668,24.37-23.359l-1.915-1.737C832.669,477.818,837.036,494.924,829.258,508.251z"/>
			
				<path id="path5757" sodipodi:nodetypes="cc" fill="#65C660" stroke="#000000" stroke-width="2.7337" stroke-linecap="round" stroke-linejoin="round" d="
				M855.794,480.384c-4.781,6.539-12.309,15.962-17.09,18.616"/>
		</g>
		<g id="g5747" transform="matrix(0.34202,0.939693,0.939693,-0.34202,171.4706,-272.6985)">
			
				<path id="path5749" sodipodi:nodetypes="cccc" fill="#65C660" stroke="#000000" stroke-width="2.7337" stroke-linejoin="round" d="
				M824.6,502.317c12.454-8.673,28.282-0.668,24.37-23.359l-1.915-1.737C828.012,471.883,832.379,488.989,824.6,502.317z"/>
			
				<path id="path5751" sodipodi:nodetypes="cc" fill="#65C660" stroke="#000000" stroke-width="2.7337" stroke-linecap="round" stroke-linejoin="round" d="
				M851.136,474.448c-4.781,6.539-12.309,15.963-17.091,18.617"/>
		</g>
		<g id="g5735" transform="matrix(1,-2.178568e-7,-2.178568e-7,-1,35.99733,840.5309)">
			
				<path id="path5737" sodipodi:nodetypes="cccc" fill="#65C660" stroke="#000000" stroke-width="2.7337" stroke-linejoin="round" d="
				M822.254,504.128c12.455-8.673,28.282-0.668,24.37-23.359l-1.915-1.737C825.666,473.695,830.033,490.8,822.254,504.128z"/>
			
				<path id="path5739" sodipodi:nodetypes="cc" fill="#65C660" stroke="#000000" stroke-width="2.7337" stroke-linecap="round" stroke-linejoin="round" d="
				M848.79,476.26c-4.781,6.539-12.309,15.962-17.09,18.616"/>
		</g>
		<g id="g5723" transform="matrix(-1,2.178568e-7,2.178568e-7,1,1753.218,-104.3879)">
			
				<path id="path5725" sodipodi:nodetypes="cccc" fill="#65C660" stroke="#000000" stroke-width="2.7337" stroke-linejoin="round" d="
				M827.898,503.461c12.454-8.672,28.281-0.668,24.37-23.359l-1.915-1.737C831.309,473.028,835.676,490.133,827.898,503.461z"/>
			
				<path id="path5727" sodipodi:nodetypes="cc" fill="#65C660" stroke="#000000" stroke-width="2.7337" stroke-linecap="round" stroke-linejoin="round" d="
				M854.434,475.593c-4.782,6.539-12.309,15.963-17.091,18.616"/>
		</g>
		<g id="g5717" transform="matrix(-0.34202,-0.939693,-0.939693,0.34202,1640.474,1009.122)">
			
				<path id="path5719" sodipodi:nodetypes="cccc" fill="#65C660" stroke="#000000" stroke-width="2.7337" stroke-linejoin="round" d="
				M826.452,505.528c12.454-8.673,28.282-0.668,24.37-23.359l-1.915-1.737C829.864,475.095,834.231,492.2,826.452,505.528z"/>
			
				<path id="path5721" sodipodi:nodetypes="cc" fill="#65C660" stroke="#000000" stroke-width="2.7337" stroke-linecap="round" stroke-linejoin="round" d="
				M852.989,477.66c-4.782,6.539-12.309,15.963-17.091,18.617"/>
		</g>
		<g id="g5705" transform="matrix(-0.34202,-0.939693,-0.939693,0.34202,1620.742,1011.624)">
			
				<path id="path5707" sodipodi:nodetypes="cccc" fill="#65C660" stroke="#000000" stroke-width="2.7337" stroke-linejoin="round" d="
				M826.837,507.228c12.454-8.672,28.282-0.668,24.37-23.359l-1.915-1.737C830.249,476.794,834.616,493.901,826.837,507.228z"/>
			
				<path id="path5709" sodipodi:nodetypes="cc" fill="#65C660" stroke="#000000" stroke-width="2.7337" stroke-linecap="round" stroke-linejoin="round" d="
				M853.374,479.36c-4.781,6.539-12.309,15.963-17.09,18.616"/>
		</g>
		<g id="g5699" transform="matrix(0.173648,-0.984808,-0.984808,-0.173648,1178.341,1283.022)">
			
				<path id="path5701" sodipodi:nodetypes="cccc" fill="#65C660" stroke="#000000" stroke-width="2.7337" stroke-linejoin="round" d="
				M825.513,509.624c12.455-8.673,28.282-0.668,24.37-23.359l-1.915-1.737C828.924,479.191,833.292,496.297,825.513,509.624z"/>
			
				<path id="path5703" sodipodi:nodetypes="cc" fill="#65C660" stroke="#000000" stroke-width="2.7337" stroke-linecap="round" stroke-linejoin="round" d="
				M852.049,481.756c-4.781,6.539-12.309,15.963-17.09,18.617"/>
		</g>
		
			<path id="path4626" sodipodi:nodetypes="cccccccccccccccscccccccccccccccccccccccccccccccccccccccccccccsccccccccccccccccccccccccccccccccccccccccc" fill="#8E690D" stroke="#000000" stroke-width="2.7337" d="
			M810.641,591.332c15.658,7.919,33.43,4.29,33.492-3.97c21.231,4.76,41.852,8.788,51.792,0
			c23.988-21.545,16.188-30.681,19.508-87.874c0.702-8.033-14.093-8.75-26.932-10.013c4.203-3.75-23.813-42.552-44.031-3.442
			c13.614-32.424-6.154-23.874-28.813-9.032c34.753-25.296-13.667-11.119-34.537-17.91c22.701-6.69,50.583,8.167,31.063-21.861
			c32.193,30.074,8.44,17.61,48.352,20.134c13.306,6.513,27.357,11.908,36.254,25.033l19.853,1.727l2.59-52.655
			c-9.214-7.756-93.13-13.348-108.763-14.674c94.706-4.016,77.845,4.662,43.16-18.127c-26.098,2.581-42.59-11.068-38.651-10.025
			c60.45,16.002,28.378-6.51-1.918-24.503c7.031,3.416,32.969,8.392,38.844,23.307c7.09,7.297,12.298,16.475,25.896,17.264
			c9.781,9.881,25.621,14.85,42.297,15.537l1.726-40.57c-17.096-11.813-35.306-11.949-47.476-3.452
			c13.86-12.948-19.055-7.769-41.433-20.717c20.051,5.196,40.036,10.195,57.834,8.632c9.783-1.735,21.292,0.918,31.075,6.042
			l1.727-35.391c-44.668,0.472-43.599-20.611-59.614-5.127c11.585-5.368,3.1-32.281-5.99-39.76
			c29.034,21.62-1.279,36.698,66.466,34.528l0.863-20.717l-18.99-23.306c6.333,6.049,16.818,16.084,18.99,13.811l2.59-47.476
			l2.589,37.117c4.292-2.229,11.729-13.895,18.127-22.443c-4.85,9.775-2.863,20.081-18.127,31.939l0.863,18.99l32.802-44.023
			c-3.968,10.184-12.379,14.696,1.98,27.775c-13.912-16.231-21.192,5.339-33.919,27.47l0.863,21.58
			c15.268-12.424,30.521-19.131,52.655-15.538c7.623-14.025,11.618-26.238,14.674-37.981c-0.232,10.074-1.083,20.92-10.358,42.297
			l6.905,10.358l-9.495-6.906c-24.931-8.619-37.328,7.08-53.518,18.127l2.59,45.749c6.025-12.491,8.083-18.475,34.528-21.58
			c17.444-11.596,18.924-16.919,45.749-23.306c5.009-15.387,17.276-22.555,26.759-26.759c-10.14,7.813-19.307,15.82-18.127,25.896
			l10.359,8.632c-13.314-4.292-42.13-0.092-58.698,18.127c-34.287,10.144-30.449,3.673-39.707,33.665l1.726,29.349
			c24.588-17.395,26.502-14.705,38.843-19.853c22.103,6.925,25.224-17.9,42.298-27.623c14.731,2.589,23.778,9.435,40.569,1.727
			c-5.332,7.615-14.892,11.002-36.254,2.589c-9.339,4.407-17.673,10.319-22.443,21.58c-7.631,5.01,4.651,18.594,1.648,16.092
			c-8.172-6.806-27.312-8.523-35.313-2.281c-12.464-0.084-20.596,6.774-28.486,18.127l1.727,38.844
			c9.89-17.494,27.522-19.513,44.023-21.579c16.365-4.398,21.686-8.965,29.349-18.127l-8.632,14.674
			c21.409,9.971,41.312,6.383,60.424-4.316c-11.906,9.302-19.925,21.783-56.107,11.221c3.981,14.354,19.242,13.668,29.349,19.854
			c-10.014-0.538-20.336-1.796-37.118-18.127l-25.896,3.453c-15.893,4.841-27.842,13.286-34.528,25.032l3.453,65.603
			c6.91,15.518,15.133,8.523,33.665,22.443c13.336,2.69,23.103,2.674,31.938,0.864c17.558,11.523,25.924-0.126,37.117-3.453
			c-6.104,6.661-13.107,19.748-41.433,10.359c-8.669,0.863-16.309,1.726-29.349,2.589l-22.442-14.675
			c16.95,10.153,11.447,30.132,61.287,25.896c-9.02,2.302-14.225,4.604-36.255,6.905c-0.319,9.094,8.335,20.636-15.537,23.307
			c17.64-22.356,2.741-35.673-20.716-46.613c-0.785,25.443,30.952,23.17-3.453,70.782c-0.619-25.299,24.778-25.625-11.222-59.56
			l-3.453-13.811c1.027,9.645-9.056,15.588,4.316,29.349c0.928,12.725-7.67,15.924-18.127,17.264
			c-13.552-0.27,0.56,16.75,3.453,26.759c-4.604-7.193-33.476-18.756-3.453-37.117c12.143-9.553,2.14-13.519-3.453-17.265
			c-8.568-1.27-0.097-12.275,6.906-22.443l-34.528,30.213c-10.092,9.858-1.792,17.416,6.042,25.033
			c-10.867-9.44-24.403-3.186-11.222-27.623c-13.115-4.179-24.32,9.535-33.665-2.59l-12.085-9.495
			c12.085,3.877,24.169,5.897,36.254,0.864c18.054,3.603,27.751-3.76,30.212-10.359c-18.706,4.612-34.344,0.023-50.929-1.727
			C838.214,608.679,809.539,601.954,810.641,591.332z"/>
		<g id="g5523" transform="matrix(0.965926,-0.258819,0.258819,0.965926,-111.6664,223.0809)">
			
				<path id="path5519" sodipodi:nodetypes="cccc" fill="#65C660" stroke="#000000" stroke-width="2.7337" stroke-linejoin="round" d="
				M815.79,509.049c12.454-8.672,28.282-0.669,24.37-23.358l-1.915-1.737C819.202,478.615,823.569,495.721,815.79,509.049z"/>
			
				<path id="path5521" sodipodi:nodetypes="cc" fill="#65C660" stroke="#000000" stroke-width="2.7337" stroke-linecap="round" stroke-linejoin="round" d="
				M842.327,481.18c-4.781,6.54-12.309,15.963-17.091,18.617"/>
		</g>
		<g id="g5527" transform="translate(-57.38922,-23.75466)">
			
				<path id="path5529" sodipodi:nodetypes="cccc" fill="#65C660" stroke="#000000" stroke-width="2.7337" stroke-linejoin="round" d="
				M814.071,510.527c12.455-8.673,28.282-0.668,24.37-23.359l-1.915-1.737C817.483,480.094,821.85,497.199,814.071,510.527z"/>
			
				<path id="path5531" sodipodi:nodetypes="cc" fill="#65C660" stroke="#000000" stroke-width="2.7337" stroke-linecap="round" stroke-linejoin="round" d="
				M840.607,482.659c-4.781,6.54-12.309,15.963-17.091,18.617"/>
		</g>
		<g id="g5533" transform="matrix(1,0,0,-1,-58.95856,927.9773)">
			
				<path id="path5535" sodipodi:nodetypes="cccc" fill="#65C660" stroke="#000000" stroke-width="2.7337" stroke-linejoin="round" d="
				M813.933,496.465c12.455-8.673,28.282-0.668,24.37-23.359l-1.916-1.736C817.345,466.031,821.712,483.138,813.933,496.465z"/>
			
				<path id="path5537" sodipodi:nodetypes="cc" fill="#65C660" stroke="#000000" stroke-width="2.7337" stroke-linecap="round" stroke-linejoin="round" d="
				M840.469,468.596c-4.781,6.54-12.309,15.963-17.09,18.617"/>
		</g>
		<g id="g5539" transform="matrix(0.5,-0.866026,0.866026,0.5,-42.35849,953.5481)">
			
				<path id="path5541" sodipodi:nodetypes="cccc" fill="#65C660" stroke="#000000" stroke-width="2.7337" stroke-linejoin="round" d="
				M813.71,497.132c12.454-8.672,28.281-0.668,24.37-23.358l-1.916-1.737C817.12,466.699,821.488,483.805,813.71,497.132z"/>
			
				<path id="path5543" sodipodi:nodetypes="cc" fill="#65C660" stroke="#000000" stroke-width="2.7337" stroke-linecap="round" stroke-linejoin="round" d="
				M840.245,469.265c-4.782,6.539-12.309,15.963-17.09,18.616"/>
		</g>
		<g id="g5545" transform="matrix(0.866026,0.5,-0.5,0.866026,333.5059,-376.3459)">
			
				<path id="path5547" sodipodi:nodetypes="cccc" fill="#65C660" stroke="#000000" stroke-width="2.7337" stroke-linejoin="round" d="
				M822.507,514.409c12.455-8.672,28.282-0.669,24.371-23.358l-1.916-1.737C825.919,483.975,830.286,501.082,822.507,514.409z"/>
			
				<path id="path5549" sodipodi:nodetypes="cc" fill="#65C660" stroke="#000000" stroke-width="2.7337" stroke-linecap="round" stroke-linejoin="round" d="
				M849.043,486.541c-4.781,6.539-12.309,15.963-17.09,18.616"/>
		</g>
		<g id="g5553" transform="matrix(0.819152,-0.573577,-0.573577,-0.819152,465.9288,1358.337)">
			
				<path id="path5555" sodipodi:nodetypes="cccc" fill="#65C660" stroke="#000000" stroke-width="2.7337" stroke-linejoin="round" d="
				M817.651,497.55c12.454-8.673,28.282-0.668,24.371-23.359l-1.916-1.737C821.063,467.117,825.43,484.223,817.651,497.55z"/>
			
				<path id="path5557" sodipodi:nodetypes="cc" fill="#65C660" stroke="#000000" stroke-width="2.7337" stroke-linecap="round" stroke-linejoin="round" d="
				M844.187,469.683c-4.781,6.539-12.309,15.963-17.091,18.616"/>
		</g>
		<g id="g5559" transform="matrix(-8.71549e-2,-0.996195,-0.996195,8.71549e-2,1441.005,1286.904)">
			
				<path id="path5561" sodipodi:nodetypes="cccc" fill="#65C660" stroke="#000000" stroke-width="2.7337" stroke-linejoin="round" d="
				M816.51,507.297c12.454-8.673,28.282-0.669,24.37-23.359l-1.916-1.737C819.922,476.863,824.289,493.969,816.51,507.297z"/>
			
				<path id="path5563" sodipodi:nodetypes="cc" fill="#65C660" stroke="#000000" stroke-width="2.7337" stroke-linecap="round" stroke-linejoin="round" d="
				M843.046,479.428c-4.782,6.54-12.309,15.963-17.09,18.617"/>
		</g>
		<g id="g5567" transform="matrix(-0.173648,-0.984808,-0.984808,0.173648,1469.783,1228.402)">
			
				<path id="path5569" sodipodi:nodetypes="cccc" fill="#65C660" stroke="#000000" stroke-width="2.7337" stroke-linejoin="round" d="
				M818.136,511.371c12.454-8.673,28.281-0.668,24.369-23.359l-1.915-1.737C821.548,480.938,825.915,498.044,818.136,511.371z"/>
			
				<path id="path5571" sodipodi:nodetypes="cc" fill="#65C660" stroke="#000000" stroke-width="2.7337" stroke-linecap="round" stroke-linejoin="round" d="
				M844.672,483.504c-4.781,6.539-12.309,15.962-17.09,18.616"/>
		</g>
		<g id="g5573" transform="matrix(-0.984808,-0.173648,-0.173648,0.984808,1775.104,153.1568)">
			
				<path id="path5575" sodipodi:nodetypes="cccc" fill="#65C660" stroke="#000000" stroke-width="2.7337" stroke-linejoin="round" d="
				M830.437,513.413c12.454-8.673,28.282-0.668,24.37-23.359l-1.915-1.737C833.849,482.979,838.216,500.086,830.437,513.413z"/>
			
				<path id="path5577" sodipodi:nodetypes="cc" fill="#65C660" stroke="#000000" stroke-width="2.7337" stroke-linecap="round" stroke-linejoin="round" d="
				M856.973,485.545c-4.781,6.539-12.309,15.962-17.091,18.616"/>
		</g>
		<g id="g5579" transform="matrix(1,0,0,-1,-41.39514,891.4308)">
			
				<path id="path5581" sodipodi:nodetypes="cccc" fill="#65C660" stroke="#000000" stroke-width="2.7337" stroke-linejoin="round" d="
				M815.472,499.667c12.454-8.673,28.282-0.668,24.37-23.359l-1.915-1.737C818.884,469.234,823.251,486.34,815.472,499.667z"/>
			
				<path id="path5583" sodipodi:nodetypes="cc" fill="#65C660" stroke="#000000" stroke-width="2.7337" stroke-linecap="round" stroke-linejoin="round" d="
				M842.009,471.799c-4.781,6.54-12.309,15.963-17.09,18.616"/>
		</g>
		<g id="g5585" transform="matrix(0.5,0.866026,0.866026,-0.5,61.66069,-26.88123)">
			
				<path id="path5587" sodipodi:nodetypes="cccc" fill="#65C660" stroke="#000000" stroke-width="2.7337" stroke-linejoin="round" d="
				M832.149,497.012c12.454-8.673,28.281-0.668,24.37-23.359l-1.915-1.737C835.559,466.579,839.927,483.685,832.149,497.012z"/>
			
				<path id="path5589" sodipodi:nodetypes="cc" fill="#65C660" stroke="#000000" stroke-width="2.7337" stroke-linecap="round" stroke-linejoin="round" d="
				M858.684,469.144c-4.781,6.539-12.309,15.963-17.09,18.616"/>
		</g>
		<g id="g5591" transform="matrix(0.939693,0.34202,0.34202,-0.939693,-132.7945,522.1336)">
			
				<path id="path5593" sodipodi:nodetypes="cccc" fill="#65C660" stroke="#000000" stroke-width="2.7337" stroke-linejoin="round" d="
				M817.566,501.065c12.455-8.673,28.282-0.668,24.37-23.359l-1.915-1.737C820.978,470.632,825.345,487.738,817.566,501.065z"/>
			
				<path id="path5595" sodipodi:nodetypes="cc" fill="#65C660" stroke="#000000" stroke-width="2.7337" stroke-linecap="round" stroke-linejoin="round" d="
				M844.103,473.197c-4.782,6.539-12.309,15.962-17.09,18.616"/>
		</g>
		<g id="g5597" transform="matrix(-2.178568e-7,-1,-1,2.178568e-7,1386.9,1275.755)">
			
				<path id="path5599" sodipodi:nodetypes="cccc" fill="#65C660" stroke="#000000" stroke-width="2.7337" stroke-linejoin="round" d="
				M821.109,504.878c12.454-8.673,28.282-0.668,24.37-23.359l-1.915-1.737C824.521,474.445,828.888,491.551,821.109,504.878z"/>
			
				<path id="path5601" sodipodi:nodetypes="cc" fill="#65C660" stroke="#000000" stroke-width="2.7337" stroke-linecap="round" stroke-linejoin="round" d="
				M847.645,477.01c-4.781,6.539-12.309,15.962-17.091,18.616"/>
		</g>
		<g id="g5603" transform="matrix(0.173648,-0.984808,-0.984808,-0.173648,1193.442,1339.962)">
			
				<path id="path5605" sodipodi:nodetypes="cccc" fill="#65C660" stroke="#000000" stroke-width="2.7337" stroke-linejoin="round" d="
				M820.828,507.455c12.454-8.673,28.282-0.668,24.37-23.359l-1.916-1.737C824.24,477.021,828.607,494.127,820.828,507.455z"/>
			
				<path id="path5607" sodipodi:nodetypes="cc" fill="#65C660" stroke="#000000" stroke-width="2.7337" stroke-linecap="round" stroke-linejoin="round" d="
				M847.364,479.587c-4.781,6.539-12.309,15.962-17.09,18.616"/>
		</g>
		<g id="g5609" transform="matrix(-0.34202,0.939693,0.939693,0.34202,666.2324,-530.3685)">
			
				<path id="path5611" sodipodi:nodetypes="cccc" fill="#65C660" stroke="#000000" stroke-width="2.7337" stroke-linejoin="round" d="
				M833.83,496.698c12.455-8.672,28.282-0.668,24.37-23.359l-1.915-1.737C837.242,466.265,841.609,483.371,833.83,496.698z"/>
			
				<path id="path5613" sodipodi:nodetypes="cc" fill="#65C660" stroke="#000000" stroke-width="2.7337" stroke-linecap="round" stroke-linejoin="round" d="
				M860.366,468.83c-4.781,6.539-12.308,15.963-17.09,18.616"/>
		</g>
		<g id="g5615" transform="matrix(0.5,-0.866026,-0.866026,-0.5,807.6377,1408.362)">
			
				<path id="path5617" sodipodi:nodetypes="cccc" fill="#65C660" stroke="#000000" stroke-width="2.7337" stroke-linejoin="round" d="
				M816.436,508.826c12.454-8.673,28.281-0.669,24.37-23.359l-1.915-1.737C819.848,478.393,824.215,495.499,816.436,508.826z"/>
			
				<path id="path5619" sodipodi:nodetypes="cc" fill="#65C660" stroke="#000000" stroke-width="2.7337" stroke-linecap="round" stroke-linejoin="round" d="
				M842.972,480.958c-4.781,6.539-12.31,15.962-17.091,18.616"/>
		</g>
		<g id="g5621" transform="matrix(0.5,-0.866026,-0.866026,-0.5,797.8113,1392.727)">
			
				<path id="path5623" sodipodi:nodetypes="cccc" fill="#65C660" stroke="#000000" stroke-width="2.7337" stroke-linejoin="round" d="
				M817.192,510.257c12.454-8.673,28.282-0.668,24.37-23.359l-1.915-1.737C820.603,479.823,824.97,496.93,817.192,510.257z"/>
			
				<path id="path5625" sodipodi:nodetypes="cc" fill="#65C660" stroke="#000000" stroke-width="2.7337" stroke-linecap="round" stroke-linejoin="round" d="
				M843.728,482.389c-4.781,6.539-12.309,15.963-17.091,18.616"/>
		</g>
		<g id="g5627" transform="matrix(0.34202,-0.939693,-0.939693,-0.34202,990.4969,1377.619)">
			
				<path id="path5629" sodipodi:nodetypes="cccc" fill="#65C660" stroke="#000000" stroke-width="2.7337" stroke-linejoin="round" d="
				M819.406,509.808c12.455-8.673,28.282-0.668,24.37-23.359l-1.915-1.736C822.818,479.374,827.185,496.48,819.406,509.808z"/>
			
				<path id="path5631" sodipodi:nodetypes="cc" fill="#65C660" stroke="#000000" stroke-width="2.7337" stroke-linecap="round" stroke-linejoin="round" d="
				M845.943,481.94c-4.781,6.539-12.309,15.963-17.09,18.616"/>
		</g>
		<g id="g5633" transform="matrix(1,2.178568e-7,2.178568e-7,-1,-20.82872,887.791)">
			
				<path id="path5635" sodipodi:nodetypes="cccc" fill="#65C660" stroke="#000000" stroke-width="2.7337" stroke-linejoin="round" d="
				M817.275,499.986c12.454-8.673,28.282-0.668,24.37-23.359l-1.915-1.737C820.686,469.553,825.054,486.659,817.275,499.986z"/>
			
				<path id="path5637" sodipodi:nodetypes="cc" fill="#65C660" stroke="#000000" stroke-width="2.7337" stroke-linecap="round" stroke-linejoin="round" d="
				M843.811,472.118c-4.781,6.539-12.309,15.963-17.091,18.617"/>
		</g>
		<g id="g5639" transform="matrix(-0.34202,-0.939693,-0.939693,0.34202,1625.635,1057.479)">
			
				<path id="path5641" sodipodi:nodetypes="cccc" fill="#65C660" stroke="#000000" stroke-width="2.7337" stroke-linejoin="round" d="
				M822.915,508.199c12.453-8.673,28.281-0.668,24.37-23.359l-1.915-1.737C826.326,477.766,830.694,494.872,822.915,508.199z"/>
			
				<path id="path5643" sodipodi:nodetypes="cc" fill="#65C660" stroke="#000000" stroke-width="2.7337" stroke-linecap="round" stroke-linejoin="round" d="
				M849.451,480.331c-4.781,6.539-12.309,15.963-17.091,18.617"/>
		</g>
		<g id="g5645" transform="matrix(0.939693,0.34202,0.34202,-0.939693,-74.20798,618.7383)">
			
				<path id="path5647" sodipodi:nodetypes="cccc" fill="#65C660" stroke="#000000" stroke-width="2.7337" stroke-linejoin="round" d="
				M825.286,494.866c12.454-8.672,28.281-0.667,24.37-23.358l-1.915-1.737C828.697,464.433,833.065,481.539,825.286,494.866z"/>
			
				<path id="path5649" sodipodi:nodetypes="cc" fill="#65C660" stroke="#000000" stroke-width="2.7337" stroke-linecap="round" stroke-linejoin="round" d="
				M851.822,466.999c-4.781,6.539-12.309,15.962-17.09,18.616"/>
		</g>
		<g id="g5651" transform="matrix(0.866026,-0.5,-0.5,-0.866026,323.0208,1203.083)">
			
				<path id="path5653" sodipodi:nodetypes="cccc" fill="#65C660" stroke="#000000" stroke-width="2.7337" stroke-linejoin="round" d="
				M818.076,508.57c12.454-8.673,28.282-0.668,24.37-23.359l-1.916-1.737C821.487,478.137,825.854,495.243,818.076,508.57z"/>
			
				<path id="path5655" sodipodi:nodetypes="cc" fill="#65C660" stroke="#000000" stroke-width="2.7337" stroke-linecap="round" stroke-linejoin="round" d="
				M844.612,480.702c-4.781,6.539-12.309,15.963-17.091,18.617"/>
		</g>
		<g id="g5657" transform="matrix(0.766045,-0.642788,-0.642788,-0.766045,476.3641,1299.727)">
			
				<path id="path5659" sodipodi:nodetypes="cccc" fill="#65C660" stroke="#000000" stroke-width="2.7337" stroke-linejoin="round" d="
				M817.815,508.283c12.455-8.673,28.282-0.669,24.37-23.359l-1.915-1.736C821.227,477.85,825.594,494.956,817.815,508.283z"/>
			
				<path id="path5661" sodipodi:nodetypes="cc" fill="#65C660" stroke="#000000" stroke-width="2.7337" stroke-linecap="round" stroke-linejoin="round" d="
				M844.351,480.415c-4.781,6.539-12.31,15.963-17.091,18.616"/>
		</g>
		<g id="g5663" transform="matrix(0.939693,0.34202,0.34202,-0.939693,-134.256,543.5381)">
			
				<path id="path5665" sodipodi:nodetypes="cccc" fill="#65C660" stroke="#000000" stroke-width="2.7337" stroke-linejoin="round" d="
				M818.088,499.259c12.454-8.673,28.282-0.668,24.37-23.359l-1.915-1.737C821.499,468.826,825.866,485.932,818.088,499.259z"/>
			
				<path id="path5667" sodipodi:nodetypes="cc" fill="#65C660" stroke="#000000" stroke-width="2.7337" stroke-linecap="round" stroke-linejoin="round" d="
				M844.624,471.391c-4.781,6.539-12.309,15.962-17.09,18.616"/>
		</g>
		<g id="g5669" transform="matrix(0.5,0.866026,0.866026,-0.5,4.079856,-142.9696)">
			
				<path id="path5671" sodipodi:nodetypes="cccc" fill="#65C660" stroke="#000000" stroke-width="2.7337" stroke-linejoin="round" d="
				M820.816,497.728c12.454-8.673,28.282-0.668,24.37-23.359l-1.916-1.737C824.227,467.295,828.594,484.401,820.816,497.728z"/>
			
				<path id="path5673" sodipodi:nodetypes="cc" fill="#65C660" stroke="#000000" stroke-width="2.7337" stroke-linecap="round" stroke-linejoin="round" d="
				M847.351,469.86c-4.781,6.539-12.309,15.962-17.09,18.616"/>
		</g>
		<g id="g5675" transform="matrix(0.939693,0.34202,0.34202,-0.939693,-128.2897,504.13)">
			
				<path id="path5677" sodipodi:nodetypes="cccc" fill="#65C660" stroke="#000000" stroke-width="2.7337" stroke-linejoin="round" d="
				M817.398,502.682c12.454-8.672,28.282-0.668,24.37-23.358l-1.916-1.737C820.809,472.249,825.177,489.355,817.398,502.682z"/>
			
				<path id="path5679" sodipodi:nodetypes="cc" fill="#65C660" stroke="#000000" stroke-width="2.7337" stroke-linecap="round" stroke-linejoin="round" d="
				M843.934,474.815c-4.781,6.539-12.309,15.962-17.091,18.616"/>
		</g>
		<g id="g5681" transform="matrix(0.34202,-0.939693,-0.939693,-0.34202,997.4625,1320.094)">
			
				<path id="path5683" sodipodi:nodetypes="cccc" fill="#65C660" stroke="#000000" stroke-width="2.7337" stroke-linejoin="round" d="
				M824.352,510.958c12.455-8.672,28.282-0.668,24.37-23.358l-1.916-1.737C827.763,480.525,832.131,497.631,824.352,510.958z"/>
			
				<path id="path5685" sodipodi:nodetypes="cc" fill="#65C660" stroke="#000000" stroke-width="2.7337" stroke-linecap="round" stroke-linejoin="round" d="
				M850.888,483.091c-4.781,6.539-12.309,15.963-17.09,18.616"/>
		</g>
		<g id="g5687" transform="matrix(0.34202,-0.939693,-0.939693,-0.34202,1014.348,1359.66)">
			
				<path id="path5689" sodipodi:nodetypes="cccc" fill="#65C660" stroke="#000000" stroke-width="2.7337" stroke-linejoin="round" d="
				M821.6,508.382c12.454-8.673,28.282-0.668,24.37-23.359l-1.915-1.737C825.011,477.949,829.379,495.055,821.6,508.382z"/>
			
				<path id="path5691" sodipodi:nodetypes="cc" fill="#65C660" stroke="#000000" stroke-width="2.7337" stroke-linecap="round" stroke-linejoin="round" d="
				M848.136,480.514c-4.781,6.539-12.309,15.963-17.091,18.616"/>
		</g>
		<g id="g5693" transform="matrix(0.5,-0.866026,-0.866026,-0.5,866.0974,1349.928)">
			
				<path id="path5695" sodipodi:nodetypes="cccc" fill="#65C660" stroke="#000000" stroke-width="2.7337" stroke-linejoin="round" d="
				M823.432,506.95c12.454-8.673,28.281-0.668,24.37-23.359l-1.915-1.737C826.843,476.516,831.211,493.622,823.432,506.95z"/>
			
				<path id="path5697" sodipodi:nodetypes="cc" fill="#65C660" stroke="#000000" stroke-width="2.7337" stroke-linecap="round" stroke-linejoin="round" d="
				M849.968,479.082c-4.781,6.539-12.309,15.962-17.09,18.616"/>
		</g>
		<g id="g5711" transform="matrix(-0.5,0.866026,0.866026,0.5,896.6907,-573.3097)">
			
				<path id="path5713" sodipodi:nodetypes="cccc" fill="#65C660" stroke="#000000" stroke-width="2.7337" stroke-linejoin="round" d="
				M829.906,501.498c12.454-8.673,28.282-0.669,24.37-23.359l-1.915-1.736C833.317,471.064,837.685,488.17,829.906,501.498z"/>
			
				<path id="path5715" sodipodi:nodetypes="cc" fill="#65C660" stroke="#000000" stroke-width="2.7337" stroke-linecap="round" stroke-linejoin="round" d="
				M856.442,473.63c-4.781,6.54-12.31,15.963-17.09,18.617"/>
		</g>
		<g id="g5729" transform="matrix(-0.173648,0.984808,0.984808,0.173648,529.8824,-563.0222)">
			
				<path id="path5731" sodipodi:nodetypes="cccc" fill="#65C660" stroke="#000000" stroke-width="2.7337" stroke-linejoin="round" d="
				M825.676,496.716c12.454-8.673,28.281-0.668,24.37-23.359l-1.915-1.737C829.087,466.283,833.455,483.389,825.676,496.716z"/>
			
				<path id="path5733" sodipodi:nodetypes="cc" fill="#65C660" stroke="#000000" stroke-width="2.7337" stroke-linecap="round" stroke-linejoin="round" d="
				M852.212,468.848c-4.781,6.539-12.309,15.963-17.09,18.617"/>
		</g>
		<g id="g5741" transform="matrix(1,-2.178568e-7,-2.178568e-7,-1,58.44565,841.6533)">
			
				<path id="path5743" sodipodi:nodetypes="cccc" fill="#65C660" stroke="#000000" stroke-width="2.7337" stroke-linejoin="round" d="
				M824.222,504.029c12.454-8.673,28.282-0.668,24.37-23.359l-1.915-1.737C827.633,473.596,832.001,490.702,824.222,504.029z"/>
			
				<path id="path5745" sodipodi:nodetypes="cc" fill="#65C660" stroke="#000000" stroke-width="2.7337" stroke-linecap="round" stroke-linejoin="round" d="
				M850.758,476.161c-4.781,6.539-12.309,15.963-17.09,18.616"/>
		</g>
		<g id="g5759" transform="matrix(0.766045,-0.642788,-0.642788,-0.766045,525.1348,1240.112)">
			
				<path id="path5761" sodipodi:nodetypes="cccc" fill="#65C660" stroke="#000000" stroke-width="2.7337" stroke-linejoin="round" d="
				M824.447,509.538c12.454-8.673,28.282-0.669,24.37-23.359l-1.916-1.737C827.858,479.104,832.226,496.21,824.447,509.538z"/>
			
				<path id="path5763" sodipodi:nodetypes="cc" fill="#65C660" stroke="#000000" stroke-width="2.7337" stroke-linecap="round" stroke-linejoin="round" d="
				M850.983,481.669c-4.781,6.539-12.309,15.963-17.09,18.616"/>
		</g>
		<g id="g5777" transform="matrix(0.766045,-0.642788,-0.642788,-0.766045,516.4888,1209.638)">
			
				<path id="path5779" sodipodi:nodetypes="cccc" fill="#65C660" stroke="#000000" stroke-width="2.7337" stroke-linejoin="round" d="
				M825.583,512.07c12.454-8.673,28.282-0.668,24.37-23.358l-1.915-1.737C828.995,481.637,833.362,498.742,825.583,512.07z"/>
			
				<path id="path5781" sodipodi:nodetypes="cc" fill="#65C660" stroke="#000000" stroke-width="2.7337" stroke-linecap="round" stroke-linejoin="round" d="
				M852.119,484.202c-4.781,6.539-12.309,15.963-17.091,18.616"/>
		</g>
		<g id="g5795" transform="matrix(-0.5,0.866026,0.866026,0.5,878.7841,-678.703)">
			
				<path id="path5797" sodipodi:nodetypes="cccc" fill="#65C660" stroke="#000000" stroke-width="2.7337" stroke-linejoin="round" d="
				M822.692,495.521c12.454-8.673,28.282-0.668,24.37-23.359l-1.915-1.736C826.104,465.088,830.471,482.194,822.692,495.521z"/>
			
				<path id="path5799" sodipodi:nodetypes="cc" fill="#65C660" stroke="#000000" stroke-width="2.7337" stroke-linecap="round" stroke-linejoin="round" d="
				M849.228,467.653c-4.781,6.539-12.309,15.963-17.09,18.617"/>
		</g>
		<g id="g5801" transform="matrix(1,-2.178568e-7,-2.178568e-7,-1,66.91577,803.8844)">
			
				<path id="path5803" sodipodi:nodetypes="cccc" fill="#65C660" stroke="#000000" stroke-width="2.7337" stroke-linejoin="round" d="
				M824.964,507.339c12.455-8.673,28.282-0.668,24.37-23.359l-1.915-1.737C828.376,476.905,832.743,494.011,824.964,507.339z"/>
			
				<path id="path5805" sodipodi:nodetypes="cc" fill="#65C660" stroke="#000000" stroke-width="2.7337" stroke-linecap="round" stroke-linejoin="round" d="
				M851.5,479.471c-4.781,6.539-12.309,15.962-17.09,18.616"/>
		</g>
		<g id="g5807" transform="matrix(-0.939693,0.34202,0.34202,0.939693,1510.495,-435.9419)">
			
				<path id="path5809" sodipodi:nodetypes="cccc" fill="#65C660" stroke="#000000" stroke-width="2.7337" stroke-linejoin="round" d="
				M828.041,496.17c12.455-8.672,28.282-0.668,24.37-23.358l-1.915-1.737C831.452,465.737,835.82,482.843,828.041,496.17z"/>
			
				<path id="path5811" sodipodi:nodetypes="cc" fill="#65C660" stroke="#000000" stroke-width="2.7337" stroke-linecap="round" stroke-linejoin="round" d="
				M854.577,468.302c-4.781,6.54-12.309,15.963-17.09,18.616"/>
		</g>
		<g id="g5813" transform="matrix(0.34202,-0.939693,-0.939693,-0.34202,1064.81,1252.782)">
			
				<path id="path5815" sodipodi:nodetypes="cccc" fill="#65C660" stroke="#000000" stroke-width="2.7337" stroke-linejoin="round" d="
				M831.913,507.43c12.455-8.673,28.282-0.668,24.37-23.359l-1.915-1.736C835.325,476.996,839.692,494.103,831.913,507.43z"/>
			
				<path id="path5817" sodipodi:nodetypes="cc" fill="#65C660" stroke="#000000" stroke-width="2.7337" stroke-linecap="round" stroke-linejoin="round" d="
				M858.449,479.562c-4.781,6.539-12.309,15.962-17.09,18.617"/>
		</g>
		<g id="g5819" transform="matrix(0.984808,-0.173648,-0.173648,-0.984808,151.3087,905.0045)">
			
				<path id="path5821" sodipodi:nodetypes="cccc" fill="#65C660" stroke="#000000" stroke-width="2.7337" stroke-linejoin="round" d="
				M825.279,510.988c12.454-8.673,28.281-0.668,24.37-23.359l-1.915-1.737C828.691,480.554,833.058,497.66,825.279,510.988z"/>
			
				<path id="path5823" sodipodi:nodetypes="cc" fill="#65C660" stroke="#000000" stroke-width="2.7337" stroke-linecap="round" stroke-linejoin="round" d="
				M851.815,483.12c-4.781,6.539-12.309,15.963-17.09,18.616"/>
		</g>
		<g id="g5825" transform="matrix(0.34202,0.939693,0.939693,-0.34202,169.5573,-350.0315)">
			
				<path id="path5827" sodipodi:nodetypes="cccc" fill="#65C660" stroke="#000000" stroke-width="2.7337" stroke-linejoin="round" d="
				M818.175,504.477c12.454-8.673,28.281-0.668,24.37-23.359l-1.915-1.737C821.587,474.043,825.954,491.15,818.175,504.477z"/>
			
				<path id="path5829" sodipodi:nodetypes="cc" fill="#65C660" stroke="#000000" stroke-width="2.7337" stroke-linecap="round" stroke-linejoin="round" d="
				M844.711,476.609c-4.781,6.539-12.309,15.963-17.09,18.616"/>
		</g>
		<g id="g5831" transform="matrix(0.866026,0.5,0.5,-0.866026,-47.9846,246.7055)">
			
				<path id="path5833" sodipodi:nodetypes="cccc" fill="#65C660" stroke="#000000" stroke-width="2.7337" stroke-linejoin="round" d="
				M820.855,511.985c12.455-8.673,28.282-0.669,24.37-23.358l-1.916-1.737C824.267,481.551,828.634,498.657,820.855,511.985z"/>
			
				<path id="path5835" sodipodi:nodetypes="cc" fill="#65C660" stroke="#000000" stroke-width="2.7337" stroke-linecap="round" stroke-linejoin="round" d="
				M847.392,484.117c-4.782,6.539-12.309,15.962-17.091,18.616"/>
		</g>
		<g id="g5843" transform="matrix(0.34202,0.939693,0.939693,-0.34202,190.3222,-366.8674)">
			
				<path id="path5845" sodipodi:nodetypes="cccc" fill="#65C660" stroke="#000000" stroke-width="2.7337" stroke-linejoin="round" d="
				M817.411,506.691c12.454-8.673,28.282-0.668,24.37-23.359l-1.915-1.736C820.823,476.258,825.19,493.364,817.411,506.691z"/>
			
				<path id="path5847" sodipodi:nodetypes="cc" fill="#65C660" stroke="#000000" stroke-width="2.7337" stroke-linecap="round" stroke-linejoin="round" d="
				M843.948,478.823c-4.782,6.539-12.31,15.962-17.091,18.616"/>
		</g>
		<g id="g5867" transform="matrix(-0.173648,0.984808,0.984808,0.173648,638.5258,-641.7588)">
			
				<path id="path5869" sodipodi:nodetypes="cccc" fill="#65C660" stroke="#000000" stroke-width="2.7337" stroke-linejoin="round" d="
				M817.228,504.894c12.454-8.673,28.281-0.668,24.369-23.358l-1.915-1.737C820.639,474.46,825.006,491.567,817.228,504.894z"/>
			
				<path id="path5871" sodipodi:nodetypes="cc" fill="#65C660" stroke="#000000" stroke-width="2.7337" stroke-linecap="round" stroke-linejoin="round" d="
				M843.764,477.026c-4.781,6.539-12.31,15.963-17.091,18.617"/>
		</g>
		<g id="g5873" transform="matrix(-1,2.178568e-7,2.178568e-7,1,1811.352,-177.5121)">
			
				<path id="path5875" sodipodi:nodetypes="cccc" fill="#65C660" stroke="#000000" stroke-width="2.7337" stroke-linejoin="round" d="
				M822.804,497.053c12.454-8.673,28.281-0.668,24.369-23.359l-1.915-1.737C826.215,466.62,830.582,483.726,822.804,497.053z"/>
			
				<path id="path5877" sodipodi:nodetypes="cc" fill="#65C660" stroke="#000000" stroke-width="2.7337" stroke-linecap="round" stroke-linejoin="round" d="
				M849.34,469.186c-4.782,6.539-12.309,15.963-17.09,18.616"/>
		</g>
		<g id="g5879" transform="matrix(-0.34202,-0.939693,-0.939693,0.34202,1698.329,939.0833)">
			
				<path id="path5881" sodipodi:nodetypes="cccc" fill="#65C660" stroke="#000000" stroke-width="2.7337" stroke-linejoin="round" d="
				M830.486,498.665c12.454-8.674,28.281-0.669,24.37-23.359l-1.915-1.737C833.897,468.231,838.264,485.337,830.486,498.665z"/>
			
				<path id="path5883" sodipodi:nodetypes="cc" fill="#65C660" stroke="#000000" stroke-width="2.7337" stroke-linecap="round" stroke-linejoin="round" d="
				M857.021,470.796c-4.781,6.54-12.309,15.963-17.09,18.617"/>
		</g>
		<g id="g5885" transform="matrix(1,-2.178568e-7,-2.178568e-7,-1,140.4324,782.8396)">
			
				<path id="path5887" sodipodi:nodetypes="cccc" fill="#65C660" stroke="#000000" stroke-width="2.7337" stroke-linejoin="round" d="
				M831.406,509.183c12.454-8.673,28.281-0.668,24.37-23.359l-1.915-1.737C834.818,478.749,839.185,495.856,831.406,509.183z"/>
			
				<path id="path5889" sodipodi:nodetypes="cc" fill="#65C660" stroke="#000000" stroke-width="2.7337" stroke-linecap="round" stroke-linejoin="round" d="
				M857.943,481.315c-4.782,6.539-12.309,15.962-17.091,18.616"/>
		</g>
		<g id="g5891" transform="matrix(0.642788,0.766045,0.766045,-0.642788,81.68485,-47.72845)">
			
				<path id="path5893" sodipodi:nodetypes="cccc" fill="#65C660" stroke="#000000" stroke-width="2.7337" stroke-linejoin="round" d="
				M824.546,512.1c12.454-8.673,28.282-0.668,24.37-23.359L847,487.004C827.957,481.666,832.324,498.772,824.546,512.1z"/>
			
				<path id="path5895" sodipodi:nodetypes="cc" fill="#65C660" stroke="#000000" stroke-width="2.7337" stroke-linecap="round" stroke-linejoin="round" d="
				M851.081,484.231c-4.781,6.54-12.309,15.963-17.09,18.616"/>
		</g>
		<g id="g5897" transform="matrix(-0.34202,0.939693,0.939693,0.34202,838.9971,-661.4352)">
			
				<path id="path5899" sodipodi:nodetypes="cccc" fill="#65C660" stroke="#000000" stroke-width="2.7337" stroke-linejoin="round" d="
				M817.86,506.996c12.454-8.673,28.281-0.668,24.37-23.358l-1.915-1.737C821.272,476.562,825.639,493.669,817.86,506.996z"/>
			
				<path id="path5901" sodipodi:nodetypes="cc" fill="#65C660" stroke="#000000" stroke-width="2.7337" stroke-linecap="round" stroke-linejoin="round" d="
				M844.396,479.128c-4.781,6.54-12.309,15.962-17.091,18.617"/>
		</g>
		<g id="g5903" transform="matrix(-0.766045,0.642788,0.642788,0.766045,1339.051,-600.9439)">
			
				<path id="path5905" sodipodi:nodetypes="cccc" fill="#65C660" stroke="#000000" stroke-width="2.7337" stroke-linejoin="round" d="
				M817.847,503.113c12.454-8.673,28.281-0.668,24.37-23.359l-1.915-1.736C821.258,472.68,825.625,489.786,817.847,503.113z"/>
			
				<path id="path5907" sodipodi:nodetypes="cc" fill="#65C660" stroke="#000000" stroke-width="2.7337" stroke-linecap="round" stroke-linejoin="round" d="
				M844.382,475.245c-4.781,6.539-12.309,15.963-17.09,18.616"/>
		</g>
		<g id="g5915" transform="matrix(-0.642788,-0.766045,-0.766045,0.642788,1864.207,690.9355)">
			
				<path id="path5917" sodipodi:nodetypes="cccc" fill="#65C660" stroke="#000000" stroke-width="2.7337" stroke-linejoin="round" d="
				M826.096,500.242c12.454-8.673,28.282-0.668,24.37-23.358l-1.915-1.737C829.508,469.808,833.875,486.914,826.096,500.242z"/>
			
				<path id="path5919" sodipodi:nodetypes="cc" fill="#65C660" stroke="#000000" stroke-width="2.7337" stroke-linecap="round" stroke-linejoin="round" d="
				M852.632,472.374c-4.78,6.539-12.309,15.963-17.09,18.616"/>
		</g>
		<g id="g5921" transform="matrix(-0.173648,-0.984808,-0.984808,0.173648,1595.491,1095.961)">
			
				<path id="path5923" sodipodi:nodetypes="cccc" fill="#65C660" stroke="#000000" stroke-width="2.7337" stroke-linejoin="round" d="
				M827.653,498.508c12.454-8.674,28.282-0.668,24.37-23.359l-1.915-1.736C831.064,468.074,835.432,485.181,827.653,498.508z"/>
			
				<path id="path5925" sodipodi:nodetypes="cc" fill="#65C660" stroke="#000000" stroke-width="2.7337" stroke-linecap="round" stroke-linejoin="round" d="
				M854.189,470.639c-4.782,6.54-12.31,15.963-17.091,18.617"/>
		</g>
		<g id="g5939" transform="matrix(-1,2.178568e-7,2.178568e-7,1,1841.376,-130.9334)">
			
				<path id="path5941" sodipodi:nodetypes="cccc" fill="#65C660" stroke="#000000" stroke-width="2.7337" stroke-linejoin="round" d="
				M820.172,501.135c12.454-8.673,28.282-0.668,24.37-23.359l-1.915-1.736C823.584,470.702,827.951,487.808,820.172,501.135z"/>
			
				<path id="path5943" sodipodi:nodetypes="cc" fill="#65C660" stroke="#000000" stroke-width="2.7337" stroke-linecap="round" stroke-linejoin="round" d="
				M846.708,473.267c-4.781,6.539-12.309,15.962-17.09,18.616"/>
		</g>
		<g id="g5945" transform="matrix(-0.34202,0.939693,0.939693,0.34202,835.0693,-618.5036)">
			
				<path id="path5947" sodipodi:nodetypes="cccc" fill="#65C660" stroke="#000000" stroke-width="2.7337" stroke-linejoin="round" d="
				M821.513,507.96c12.454-8.673,28.282-0.669,24.37-23.359l-1.915-1.736C824.924,477.526,829.291,494.632,821.513,507.96z"/>
			
				<path id="path5949" sodipodi:nodetypes="cc" fill="#65C660" stroke="#000000" stroke-width="2.7337" stroke-linecap="round" stroke-linejoin="round" d="
				M848.049,480.091c-4.781,6.539-12.309,15.963-17.091,18.617"/>
		</g>
		<g id="g5951" transform="matrix(0.34202,0.939693,0.939693,-0.34202,285.4451,-299.2433)">
			
				<path id="path5953" sodipodi:nodetypes="cccc" fill="#65C660" stroke="#000000" stroke-width="2.7337" stroke-linejoin="round" d="
				M825.83,512.497c12.455-8.672,28.282-0.669,24.37-23.359l-1.915-1.736C829.242,482.064,833.609,499.17,825.83,512.497z"/>
			
				<path id="path5955" sodipodi:nodetypes="cc" fill="#65C660" stroke="#000000" stroke-width="2.7337" stroke-linecap="round" stroke-linejoin="round" d="
				M852.366,484.629c-4.781,6.539-12.309,15.963-17.09,18.616"/>
		</g>
		<g id="g5957" transform="matrix(-0.5,0.866026,0.866026,0.5,1041.812,-639.4198)">
			
				<path id="path5959" sodipodi:nodetypes="cccc" fill="#65C660" stroke="#000000" stroke-width="2.7337" stroke-linejoin="round" d="
				M818.53,509.614c12.454-8.672,28.282-0.668,24.37-23.359l-1.915-1.736C821.942,479.181,826.309,496.286,818.53,509.614z"/>
			
				<path id="path5961" sodipodi:nodetypes="cc" fill="#65C660" stroke="#000000" stroke-width="2.7337" stroke-linecap="round" stroke-linejoin="round" d="
				M845.066,481.746c-4.781,6.539-12.309,15.963-17.09,18.617"/>
		</g>
		<g id="g5963" transform="matrix(-0.984808,0.173648,0.173648,0.984808,1713.211,-229.8091)">
			
				<path id="path5965" sodipodi:nodetypes="cccc" fill="#65C660" stroke="#000000" stroke-width="2.7337" stroke-linejoin="round" d="
				M823.294,505.238c12.454-8.673,28.281-0.668,24.37-23.359l-1.915-1.737C826.707,474.805,831.073,491.911,823.294,505.238z"/>
			
				<path id="path5967" sodipodi:nodetypes="cc" fill="#65C660" stroke="#000000" stroke-width="2.7337" stroke-linecap="round" stroke-linejoin="round" d="
				M849.831,477.37c-4.781,6.539-12.31,15.962-17.09,18.616"/>
		</g>
		<g id="g5969" transform="matrix(-0.939693,0.34202,0.34202,0.939693,1610.208,-356.4979)">
			
				<path id="path5971" sodipodi:nodetypes="cccc" fill="#65C660" stroke="#000000" stroke-width="2.7337" stroke-linejoin="round" d="
				M822.211,505.7c12.455-8.673,28.281-0.668,24.37-23.359l-1.916-1.736C825.622,475.267,829.99,492.373,822.211,505.7z"/>
			
				<path id="path5973" sodipodi:nodetypes="cc" fill="#65C660" stroke="#000000" stroke-width="2.7337" stroke-linecap="round" stroke-linejoin="round" d="
				M848.747,477.832c-4.781,6.54-12.309,15.963-17.09,18.617"/>
		</g>
		<g id="g5975" transform="matrix(-0.939693,0.34202,0.34202,0.939693,1627.044,-367.7219)">
			
				<path id="path5977" sodipodi:nodetypes="cccc" fill="#65C660" stroke="#000000" stroke-width="2.7337" stroke-linejoin="round" d="
				M820.488,505.281c12.454-8.673,28.281-0.668,24.37-23.359l-1.915-1.737C823.9,474.847,828.267,491.953,820.488,505.281z"/>
			
				<path id="path5979" sodipodi:nodetypes="cc" fill="#65C660" stroke="#000000" stroke-width="2.7337" stroke-linecap="round" stroke-linejoin="round" d="
				M847.024,477.413c-4.78,6.539-12.308,15.962-17.09,18.616"/>
		</g>
		
			<g id="g5981" transform="matrix(0.34202,0.939693,0.939693,-0.34202,273.9407,-242.5628)" inkscape:transform-center-y="-13.749299" inkscape:transform-center-x="-3.6477731">
			
				<path id="path5983" sodipodi:nodetypes="cccc" fill="#65C660" stroke="#000000" stroke-width="2.7337" stroke-linejoin="round" d="
				M830.153,509.852c12.454-8.674,28.282-0.669,24.37-23.359l-1.915-1.737C833.564,479.418,837.932,496.524,830.153,509.852z"/>
			
				<path id="path5985" sodipodi:nodetypes="cc" fill="#65C660" stroke="#000000" stroke-width="2.7337" stroke-linecap="round" stroke-linejoin="round" d="
				M856.689,481.983c-4.781,6.539-12.309,15.963-17.09,18.616"/>
		</g>
		<g id="g5987" transform="matrix(-0.766045,0.642788,0.642788,0.766045,1371.32,-549.0334)">
			
				<path id="path5989" sodipodi:nodetypes="cccc" fill="#65C660" stroke="#000000" stroke-width="2.7337" stroke-linejoin="round" d="
				M818.604,508.415c12.455-8.673,28.281-0.669,24.37-23.359l-1.916-1.737C822.016,477.982,826.383,495.088,818.604,508.415z"/>
			
				<path id="path5991" sodipodi:nodetypes="cc" fill="#65C660" stroke="#000000" stroke-width="2.7337" stroke-linecap="round" stroke-linejoin="round" d="
				M845.14,480.548c-4.781,6.539-12.309,15.962-17.09,18.616"/>
		</g>
		<g id="g5993" transform="matrix(0.939693,-0.34202,-0.34202,-0.939693,334.562,1159.366)">
			
				<path id="path5995" sodipodi:nodetypes="cccc" fill="#65C660" stroke="#000000" stroke-width="2.7337" stroke-linejoin="round" d="
				M827.946,498.1c12.454-8.673,28.281-0.668,24.37-23.359l-1.915-1.737C831.357,467.666,835.724,484.773,827.946,498.1z"/>
			
				<path id="path5997" sodipodi:nodetypes="cc" fill="#65C660" stroke="#000000" stroke-width="2.7337" stroke-linecap="round" stroke-linejoin="round" d="
				M854.481,470.232c-4.78,6.539-12.308,15.963-17.089,18.617"/>
		</g>
		<g id="g5999" transform="matrix(-1,2.178568e-7,2.178568e-7,1,1864.667,-73.41094)">
			
				<path id="path6001" sodipodi:nodetypes="cccc" fill="#65C660" stroke="#000000" stroke-width="2.7337" stroke-linejoin="round" d="
				M818.132,506.176c12.454-8.672,28.281-0.668,24.369-23.359l-1.915-1.737C821.543,475.743,825.909,492.849,818.132,506.176z"/>
			
				<path id="path6003" sodipodi:nodetypes="cc" fill="#65C660" stroke="#000000" stroke-width="2.7337" stroke-linecap="round" stroke-linejoin="round" d="
				M844.667,478.308c-4.781,6.539-12.309,15.963-17.09,18.617"/>
		</g>
		<g id="g6005" transform="matrix(0.34202,0.939693,0.939693,-0.34202,311.2596,-241.161)">
			
				<path id="path6007" sodipodi:nodetypes="cccc" fill="#65C660" stroke="#000000" stroke-width="2.7337" stroke-linejoin="round" d="
				M831.387,512.882c12.454-8.673,28.281-0.668,24.37-23.359l-1.916-1.737C834.798,482.449,839.166,499.555,831.387,512.882z"/>
			
				<path id="path6009" sodipodi:nodetypes="cc" fill="#65C660" stroke="#000000" stroke-width="2.7337" stroke-linecap="round" stroke-linejoin="round" d="
				M857.923,485.014c-4.781,6.539-12.31,15.963-17.09,18.616"/>
		</g>
		<g id="g6011" transform="matrix(-0.866026,0.5,0.5,0.866026,1551.04,-439.4811)">
			
				<path id="path6013" sodipodi:nodetypes="cccc" fill="#65C660" stroke="#000000" stroke-width="2.7337" stroke-linejoin="round" d="
				M817.394,510.973c12.454-8.673,28.281-0.668,24.37-23.358l-1.916-1.737C820.805,480.54,825.172,497.646,817.394,510.973z"/>
			
				<path id="path6015" sodipodi:nodetypes="cc" fill="#65C660" stroke="#000000" stroke-width="2.7337" stroke-linecap="round" stroke-linejoin="round" d="
				M843.93,483.105c-4.781,6.539-12.309,15.963-17.09,18.616"/>
		</g>
		<g id="g6017" transform="matrix(-0.642788,-0.766045,-0.766045,0.642788,1961.856,746.7744)">
			
				<path id="path6019" sodipodi:nodetypes="cccc" fill="#65C660" stroke="#000000" stroke-width="2.7337" stroke-linejoin="round" d="
				M816.848,496.832c12.455-8.672,28.282-0.668,24.37-23.359l-1.915-1.736C820.259,466.398,824.627,483.505,816.848,496.832z"/>
			
				<path id="path6021" sodipodi:nodetypes="cc" fill="#65C660" stroke="#000000" stroke-width="2.7337" stroke-linecap="round" stroke-linejoin="round" d="
				M843.384,468.964c-4.781,6.54-12.309,15.963-17.09,18.617"/>
		</g>
		<g id="g6029" transform="matrix(-0.939693,0.34202,0.34202,0.939693,1603.473,-306.2716)">
			
				<path id="path6031" sodipodi:nodetypes="cccc" fill="#65C660" stroke="#000000" stroke-width="2.7337" stroke-linejoin="round" d="
				M824.271,509.634c12.455-8.672,28.281-0.668,24.37-23.359l-1.915-1.737C827.683,479.201,832.049,496.307,824.271,509.634z"/>
			
				<path id="path6033" sodipodi:nodetypes="cc" fill="#65C660" stroke="#000000" stroke-width="2.7337" stroke-linecap="round" stroke-linejoin="round" d="
				M850.807,481.766c-4.781,6.539-12.309,15.963-17.09,18.617"/>
		</g>
		<g id="g6035" transform="matrix(1,-2.178568e-7,-2.178568e-7,-1,129.7697,939.1326)">
			
				<path id="path6037" sodipodi:nodetypes="cccc" fill="#65C660" stroke="#000000" stroke-width="2.7337" stroke-linejoin="round" d="
				M830.472,495.487c12.454-8.673,28.281-0.669,24.37-23.359l-1.916-1.737C833.884,465.053,838.251,482.16,830.472,495.487z"/>
			
				<path id="path6039" sodipodi:nodetypes="cc" fill="#65C660" stroke="#000000" stroke-width="2.7337" stroke-linecap="round" stroke-linejoin="round" d="
				M857.008,467.619c-4.781,6.54-12.309,15.963-17.091,18.616"/>
		</g>
		<g id="g6041" transform="matrix(-0.34202,0.939693,0.939693,0.34202,851.9041,-515.5249)">
			
				<path id="path6043" sodipodi:nodetypes="cccc" fill="#65C660" stroke="#000000" stroke-width="2.7337" stroke-linejoin="round" d="
				M829.488,512.432c12.454-8.673,28.281-0.669,24.37-23.359l-1.915-1.737C832.9,481.998,837.266,499.104,829.488,512.432z"/>
			
				<path id="path6045" sodipodi:nodetypes="cc" fill="#65C660" stroke="#000000" stroke-width="2.7337" stroke-linecap="round" stroke-linejoin="round" d="
				M856.024,484.564c-4.781,6.538-12.309,15.962-17.091,18.616"/>
		</g>
		<g id="g6047" transform="matrix(0.642788,0.766045,0.766045,-0.642788,37.91133,125.961)">
			
				<path id="path6049" sodipodi:nodetypes="cccc" fill="#65C660" stroke="#000000" stroke-width="2.7337" stroke-linejoin="round" d="
				M833.739,499.377c12.454-8.672,28.281-0.668,24.37-23.358l-1.916-1.737C837.151,468.944,841.518,486.051,833.739,499.377z"/>
			
				<path id="path6051" sodipodi:nodetypes="cc" fill="#65C660" stroke="#000000" stroke-width="2.7337" stroke-linecap="round" stroke-linejoin="round" d="
				M860.275,471.51c-4.781,6.539-12.309,15.963-17.09,18.616"/>
		</g>
		<g id="g6053" transform="matrix(-1,2.178568e-7,2.178568e-7,1,1849.234,-43.10632)">
			
				<path id="path6055" sodipodi:nodetypes="cccc" fill="#65C660" stroke="#000000" stroke-width="2.7337" stroke-linejoin="round" d="
				M819.483,508.831c12.455-8.673,28.282-0.668,24.37-23.359l-1.915-1.737C822.895,478.398,827.263,495.504,819.483,508.831z"/>
			
				<path id="path6057" sodipodi:nodetypes="cc" fill="#65C660" stroke="#000000" stroke-width="2.7337" stroke-linecap="round" stroke-linejoin="round" d="
				M846.02,480.963c-4.781,6.539-12.31,15.962-17.09,18.617"/>
		</g>
		<g id="g6065" transform="matrix(0.34202,0.939693,0.939693,-0.34202,291.8985,-172.4136)">
			
				<path id="path6067" sodipodi:nodetypes="cccc" fill="#65C660" stroke="#000000" stroke-width="2.7337" stroke-linejoin="round" d="
				M836.467,509.227c12.455-8.672,28.282-0.668,24.37-23.359l-1.914-1.737C839.878,478.794,844.246,495.9,836.467,509.227z"/>
			
				<path id="path6069" sodipodi:nodetypes="cc" fill="#65C660" stroke="#000000" stroke-width="2.7337" stroke-linecap="round" stroke-linejoin="round" d="
				M863.003,481.36c-4.781,6.538-12.309,15.962-17.09,18.616"/>
		</g>
		<g id="g6071" transform="matrix(0.766045,0.642788,0.642788,-0.766045,97.38622,273.5722)">
			
				<path id="path6073" sodipodi:nodetypes="cccc" fill="#65C660" stroke="#000000" stroke-width="2.7337" stroke-linejoin="round" d="
				M839.101,505.076c12.454-8.673,28.282-0.668,24.37-23.358l-1.915-1.738C842.513,474.642,846.88,491.748,839.101,505.076z"/>
			
				<path id="path6075" sodipodi:nodetypes="cc" fill="#65C660" stroke="#000000" stroke-width="2.7337" stroke-linecap="round" stroke-linejoin="round" d="
				M865.637,477.208c-4.781,6.539-12.308,15.962-17.09,18.616"/>
		</g>
		<g id="g6077" transform="matrix(0.173648,0.984808,0.984808,-0.173648,440.5201,-299.8468)">
			
				<path id="path6079" sodipodi:nodetypes="cccc" fill="#65C660" stroke="#000000" stroke-width="2.7337" stroke-linejoin="round" d="
				M834.948,513.451c12.453-8.672,28.281-0.668,24.37-23.358l-1.916-1.737C838.359,483.018,842.726,500.124,834.948,513.451z"/>
			
				<path id="path6081" sodipodi:nodetypes="cc" fill="#65C660" stroke="#000000" stroke-width="2.7337" stroke-linecap="round" stroke-linejoin="round" d="
				M861.484,485.584c-4.782,6.54-12.31,15.963-17.091,18.617"/>
		</g>
		<g id="g6083" transform="matrix(-0.984808,-0.173648,-0.173648,0.984808,1981.104,133.509)">
			
				<path id="path6085" sodipodi:nodetypes="cccc" fill="#65C660" stroke="#000000" stroke-width="2.7337" stroke-linejoin="round" d="
				M812.959,508.582c12.454-8.673,28.282-0.668,24.37-23.359l-1.915-1.736C816.37,478.149,820.737,495.255,812.959,508.582z"/>
			
				<path id="path6087" sodipodi:nodetypes="cc" fill="#65C660" stroke="#000000" stroke-width="2.7337" stroke-linecap="round" stroke-linejoin="round" d="
				M839.495,480.714c-4.781,6.539-12.31,15.963-17.091,18.616"/>
		</g>
		<g id="g6089" transform="matrix(-0.5,0.866026,0.866026,0.5,1043.08,-490.3533)" inkscape:transform-center-y="-1.6835876">
			
				<path id="path6091" sodipodi:nodetypes="cccc" fill="#65C660" stroke="#000000" stroke-width="2.7337" stroke-linejoin="round" d="
				M829.787,516.241c12.455-8.673,28.282-0.669,24.37-23.358l-1.916-1.737C833.199,485.808,837.566,502.914,829.787,516.241z"/>
			
				<path id="path6093" sodipodi:nodetypes="cc" fill="#65C660" stroke="#000000" stroke-width="2.7337" stroke-linecap="round" stroke-linejoin="round" d="
				M856.323,488.373c-4.781,6.539-12.309,15.962-17.091,18.616"/>
		</g>
		
			<g id="g6095" transform="matrix(-0.939693,0.34202,0.34202,0.939693,1667.946,-251.9466)" inkscape:transform-center-y="-19.746421" inkscape:transform-center-x="36.597959">
			
				<path id="path6097" sodipodi:nodetypes="cccc" fill="#65C660" stroke="#000000" stroke-width="2.7337" stroke-linejoin="round" d="
				M820.591,516.04c12.453-8.673,28.281-0.668,24.369-23.359l-1.916-1.737C824.001,485.607,828.369,502.712,820.591,516.04z"/>
			
				<path id="path6099" sodipodi:nodetypes="cc" fill="#65C660" stroke="#000000" stroke-width="2.7337" stroke-linecap="round" stroke-linejoin="round" d="
				M847.126,488.172c-4.781,6.539-12.309,15.963-17.09,18.616"/>
		</g>
		<g id="g6107" transform="matrix(-1,-2.178568e-7,-2.178568e-7,1,1826.829,-3.216914)">
			
				<path id="path6109" sodipodi:nodetypes="cccc" fill="#65C660" stroke="#000000" stroke-width="2.7337" stroke-linejoin="round" d="
				M821.447,512.327c12.454-8.673,28.281-0.668,24.37-23.359l-1.915-1.736C824.859,481.893,829.226,499,821.447,512.327z"/>
			
				<path id="path6111" sodipodi:nodetypes="cc" fill="#65C660" stroke="#000000" stroke-width="2.7337" stroke-linecap="round" stroke-linejoin="round" d="
				M847.983,484.459c-4.782,6.539-12.309,15.962-17.091,18.616"/>
		</g>
		<g id="g6113" transform="matrix(-0.5,-0.866026,-0.866026,0.5,1805.118,976.0275)">
			
				<path id="path6115" sodipodi:nodetypes="cccc" fill="#65C660" stroke="#000000" stroke-width="2.7337" stroke-linejoin="round" d="
				M815.984,505.013c12.454-8.673,28.281-0.668,24.37-23.359l-1.916-1.737C819.396,474.579,823.763,491.684,815.984,505.013z"/>
			
				<path id="path6117" sodipodi:nodetypes="cc" fill="#65C660" stroke="#000000" stroke-width="2.7337" stroke-linecap="round" stroke-linejoin="round" d="
				M842.52,477.144c-4.781,6.539-12.309,15.962-17.091,18.616"/>
		</g>
	</g>
	<g id="g84526" transform="matrix(0.574025,0,0,0.574025,125.11938,343.07184)">
		<path id="path9162" fill="#FCEF3C" stroke="#000000" stroke-width="3.2629" d="M28.994,57.728
			c-1.67-23.149-31.288-24.328-34.029,0C-6.8,73.39-6.262,82.575-17.188,104.259c-17.629,34.983,1.502,73.596,32.64,65.975
			c31.998,9.137,48.303-42.773,28.126-73.962C36.523,85.365,30.464,78.095,28.994,57.728z"/>
		<path id="path10049" fill="#FCEF3C" stroke="#00000A" stroke-width="2.1753" d="M13.021,44.531
			c-0.828-7.062,1.639-13.654,7.292-19.791l-4.167-3.474C9.547,29.023,5.291,37.362,6.076,46.962L13.021,44.531z"/>
	</g>
	<g id="g84575" transform="matrix(0.574025,0,0,0.574025,426.17201,361.40518)">
		<path id="path84577" fill="#FCEF3C" stroke="#000000" stroke-width="3.2629" d="M74.951,60.526
			c-1.671-23.149-31.286-24.326-34.028,0c-1.766,15.663-1.227,24.849-12.154,46.531c-17.63,34.985,1.502,73.598,32.64,65.975
			c32.001,9.139,48.304-42.773,28.127-73.96C82.481,88.163,76.421,80.893,74.951,60.526z"/>
		<path id="path84579" fill="#FCEF3C" stroke="#00000A" stroke-width="2.1753" d="M58.978,47.331
			c-0.827-7.064,1.64-13.654,7.292-19.792l-4.166-3.472c-6.599,7.754-10.854,16.096-10.07,25.694L58.978,47.331z"/>
	</g>
	<g id="g84581" transform="matrix(0.574025,0,0,0.574025,215.82113,291.9315)">
		<path id="path84583" fill="#FCEF3C" stroke="#000000" stroke-width="3.2629" d="M42.841,49.921
			c-1.672-23.15-31.289-24.328-34.031,0C7.046,65.584,7.584,74.769-3.343,96.451c-17.629,34.983,1.504,73.598,32.641,65.975
			c31.998,9.139,48.303-42.773,28.126-73.96C50.369,77.557,44.31,70.288,42.841,49.921z"/>
		<path id="path84585" fill="#FCEF3C" stroke="#00000A" stroke-width="2.1753" d="M26.867,36.726
			c-0.829-7.064,1.639-13.657,7.292-19.793l-4.166-3.473c-6.599,7.755-10.856,16.096-10.07,25.696L26.867,36.726z"/>
	</g>
	<g id="g84587" transform="matrix(0.574025,0,0,0.574025,358.62815,309.29992)">
		<path id="path84589" fill="#FCEF3C" stroke="#000000" stroke-width="3.2629" d="M64.641,52.572
			c-1.669-23.15-31.289-24.327-34.03,0c-1.766,15.663-1.227,24.849-12.154,46.529c-17.627,34.985,1.504,73.6,32.64,65.976
			c32.001,9.139,48.305-42.773,28.127-73.962C72.169,80.211,66.109,72.938,64.641,52.572z"/>
		<path id="path84591" fill="#FCEF3C" stroke="#00000A" stroke-width="2.1753" d="M48.668,39.377
			c-0.829-7.063,1.64-13.656,7.29-19.793l-4.166-3.471c-6.597,7.753-10.854,16.095-10.07,25.696L48.668,39.377z"/>
	</g>
	<g id="g84593" transform="matrix(0.574025,0,0,0.574025,375.99657,226.31747)">
		<path id="path84595" fill="#FCEF3C" stroke="#000000" stroke-width="3.2629" d="M67.291,39.904
			c-1.669-23.149-31.288-24.326-34.029,0c-1.766,15.663-1.228,24.849-12.154,46.53c-17.628,34.985,1.502,73.599,32.642,65.975
			c31.997,9.139,48.302-42.773,28.125-73.961C74.821,67.542,68.763,60.271,67.291,39.904z"/>
		<path id="path84597" fill="#FCEF3C" stroke="#00000A" stroke-width="2.1753" d="M51.32,26.709
			c-0.83-7.064,1.638-13.655,7.292-19.792l-4.166-3.472c-6.601,7.754-10.856,16.095-10.07,25.696L51.32,26.709z"/>
	</g>
	<g id="g84599" transform="matrix(0.574025,0,0,0.574025,165.64568,216.66834)">
		<path id="path84601" fill="#FCEF3C" stroke="#000000" stroke-width="3.2629" d="M35.181,38.432
			c-1.67-23.15-31.289-24.328-34.029,0c-1.765,15.662-1.227,24.847-12.153,46.53c-17.629,34.983,1.502,73.598,32.639,65.975
			c31.999,9.137,48.304-42.774,28.127-73.963C42.71,66.069,36.65,58.798,35.181,38.432z"/>
		<path id="path84603" fill="#FCEF3C" stroke="#00000A" stroke-width="2.1753" d="M19.208,25.236
			C18.38,18.173,20.847,11.58,26.5,5.444l-4.167-3.472c-6.599,7.754-10.855,16.095-10.07,25.696L19.208,25.236z"/>
	</g>
	<g id="g84617" transform="matrix(0.574025,0,0,0.574025,248.62814,118.24729)">
		<path id="path84619" fill="#FCEF3C" stroke="#000000" stroke-width="3.2629" d="M47.848,23.406
			c-1.67-23.149-31.288-24.326-34.029,0c-1.765,15.663-1.227,24.849-12.153,46.531c-17.629,34.984,1.502,73.599,32.64,65.976
			c31.998,9.137,48.304-42.775,28.127-73.963C55.377,51.044,49.317,43.774,47.848,23.406z"/>
		<path id="path84621" fill="#FCEF3C" stroke="#00000A" stroke-width="2.1753" d="M31.875,10.212
			c-0.828-7.063,1.64-13.656,7.292-19.793L35-13.054C28.401-5.299,24.145,3.042,24.931,12.642L31.875,10.212z"/>
	</g>
	<g id="g84623" transform="matrix(0.574025,0,0,0.574025,335.47025,93.159572)">
		<path id="path84625" fill="#FCEF3C" stroke="#000000" stroke-width="3.2629" d="M61.105,19.577
			c-1.669-23.149-31.288-24.327-34.029,0c-1.766,15.663-1.228,24.848-12.155,46.53c-17.627,34.984,1.506,73.598,32.642,65.976
			c31.999,9.138,48.304-42.773,28.125-73.962C68.634,47.215,62.574,39.943,61.105,19.577z"/>
		<path id="path84627" fill="#FCEF3C" stroke="#00000A" stroke-width="2.1753" d="M45.132,6.381
			c-0.828-7.062,1.64-13.655,7.292-19.792l-4.166-3.472C41.658-9.129,37.402-0.789,38.186,8.813L45.132,6.381z"/>
	</g>
</g>
</svg>
