<?xml version="1.0" encoding="utf-8"?>
<!-- Generator: Adobe Illustrator 16.0.0, SVG Export Plug-In . SVG Version: 6.00 Build 0)  -->
<!DOCTYPE svg PUBLIC "-//W3C//DTD SVG 1.1//EN" "http://www.w3.org/Graphics/SVG/1.1/DTD/svg11.dtd">
<svg version="1.1" id="Layer_1" xmlns="http://www.w3.org/2000/svg" xmlns:xlink="http://www.w3.org/1999/xlink" x="0px" y="0px"
	 width="595.354px" height="595.354px" viewBox="0 0 595.354 595.354" enable-background="new 0 0 595.354 595.354"
	 xml:space="preserve">
<path fill="#FFFFFF" d="M474.788,328.891c14.941,0,28.722-3.68,41.341-11.046c12.617-7.363,22.608-17.354,29.973-29.972
	s11.045-26.397,11.045-41.339c0-14.941-3.681-28.721-11.045-41.34c-7.364-12.618-17.355-22.609-29.973-29.973
	c-12.619-7.363-26.399-11.045-41.341-11.045c-14.94,0-28.721,3.682-41.34,11.045c-12.617,7.364-22.609,17.355-29.972,29.973
	c-7.363,12.619-11.045,26.399-11.045,41.339c0,14.941,3.682,28.722,11.045,41.34c7.362,12.618,17.354,22.609,29.972,29.972
	C446.067,325.211,459.848,328.891,474.788,328.891z M504.173,273.021c-0.145-0.071-0.483-0.411-1.02-1.02
	c-0.536-0.606-1.019-0.946-1.449-1.019c0.145,0,0.306,0.18,0.483,0.537c0.18,0.358,0.357,0.751,0.537,1.179
	c0.179,0.43,0.304,0.68,0.375,0.752c0.429,0.5,1.216,1.036,2.359,1.608c1,0.429,2.859,0.857,5.574,1.287
	c2.432,0.571,4.254,0.179,5.471-1.18c-0.142,0.141,0.198,0.606,1.02,1.393c0.82,0.786,1.341,1.216,1.554,1.286
	c0.216,0.144,0.752,0.306,1.608,0.483c0.857,0.179,1.395,0.446,1.608,0.805l0.215,2.359c-0.857-0.072-1.482,0.178-1.876,0.75
	c-0.393,0.571-0.625,1.322-0.697,2.252c0-0.143-0.215-0.429-0.643-0.858c0,0.501-0.163,0.786-0.483,0.858
	c-0.32,0.071-0.733,0.035-1.233-0.109c-0.501-0.143-0.822-0.178-0.966-0.107c-0.715,0.216-1.25,0.483-1.607,0.805
	s-0.644,0.912-0.858,1.77s-0.356,1.395-0.429,1.609c-0.144,0.357-0.483,0.732-1.019,1.126c-0.538,0.394-0.876,0.768-1.02,1.125
	c-0.071,0.143-0.16,0.34-0.268,0.591c-0.108,0.25-0.214,0.481-0.322,0.697c-0.107,0.214-0.249,0.411-0.429,0.59
	c-0.18,0.178-0.375,0.268-0.59,0.268s-0.465-0.18-0.75-0.537c-0.287-0.357-0.555-0.714-0.805-1.072s-0.41-0.537-0.482-0.537
	c-0.215,0.143-0.43,0.196-0.644,0.161c-0.215-0.036-0.376-0.072-0.482-0.107c-0.107-0.036-0.27-0.144-0.482-0.322
	c-0.216-0.18-0.394-0.306-0.537-0.376c-0.214-0.143-0.518-0.25-0.912-0.321c-0.392-0.071-0.698-0.143-0.911-0.214
	c1.073,0.358,1.037,0.751-0.106,1.18c-0.716,0.285-1.287,0.392-1.715,0.321c0.642,0.286,0.91,0.715,0.803,1.286
	c-0.107,0.572-0.41,1.073-0.911,1.502h0.536c-0.071,0.285-0.375,0.589-0.911,0.911c-0.536,0.322-1.162,0.626-1.876,0.912
	c-0.716,0.285-1.181,0.5-1.395,0.643c-0.572,0.357-1.787,0.698-3.647,1.019c-1.857,0.321-3.039,0.339-3.537,0.053
	c-0.357-0.428-0.521-0.803-0.482-1.125c0.035-0.322,0.178-0.823,0.428-1.502c0.25-0.678,0.377-1.125,0.377-1.34
	c0.07-0.429-0.127-0.893-0.592-1.394c-0.464-0.501-0.697-0.93-0.697-1.287c0-0.501,0.502-1.056,1.502-1.663
	c1-0.607,1.358-1.376,1.073-2.305c-0.216-0.573-0.787-1.145-1.717-1.716c-0.929-0.572-1.501-1.002-1.716-1.287
	c-0.356-0.572-0.412-1.234-0.162-1.984c0.252-0.75,0.627-1.341,1.126-1.769c0.144-0.143,0.198-0.287,0.163-0.43
	c-0.036-0.144-0.163-0.304-0.376-0.483c-0.215-0.178-0.41-0.321-0.591-0.428c-0.177-0.108-0.411-0.232-0.697-0.375l-0.32-0.214
	c-0.786-0.359-1.52-0.143-2.198,0.642c-0.68,0.787-1.162,1.716-1.448,2.789c-0.5,1.788-1.071,2.86-1.715,3.217
	c-1.645,0.571-2.681,0.535-3.11-0.107c-0.357,0.929-1.823,1.859-4.396,2.787c-1.787,0.645-3.861,0.788-6.221,0.43
	c0.43,0.072,0.43,0.608,0,1.609c-0.502,1.072-1.178,1.501-2.036,1.287c0.214,0.43,0.356,1.055,0.427,1.877
	c0.073,0.821,0.108,1.304,0.108,1.447c0.213,0.929,0.644,1.751,1.286,2.465c0.071,0.073,0.321,0.376,0.752,0.912
	c0.428,0.537,0.769,1.02,1.019,1.449c0.25,0.428,0.268,0.642,0.054,0.642c2.501-0.284,4.29,0.108,5.361,1.181
	c0.357,0.357,0.769,0.965,1.232,1.823c0.466,0.857,0.842,1.466,1.128,1.822c0.642,0.429,1.143,0.625,1.5,0.591
	c0.356-0.037,0.877-0.233,1.556-0.591c0.68-0.356,1.197-0.536,1.554-0.536c1.002-0.071,1.557,0.321,1.663,1.18
	c0.107,0.858-0.161,1.573-0.805,2.145c0.858-0.072,0.966,0.537,0.321,1.823c-0.355,0.502-0.643,0.823-0.857,0.965
	c-0.857,0.285-1.822,0.108-2.896-0.534c-0.572-0.287-0.501-0.573,0.214-0.86c-0.07,0.072-0.41-0.302-1.017-1.125
	c-0.608-0.823-1.198-1.449-1.771-1.877c-0.571-0.429-1.145-0.249-1.716,0.537c-0.072,0.07-0.268,0.554-0.589,1.446
	c-0.322,0.895-0.662,1.377-1.02,1.448c-0.573,0-1.145-0.535-1.715-1.607c0.214,0.572-0.18,1.108-1.181,1.607
	c-0.999,0.502-1.859,0.786-2.574,0.857c1.358,0.859,1.074,1.824-0.857,2.897c-0.5,0.285-1.233,0.463-2.198,0.535
	c-0.966,0.071-1.663-0.072-2.091-0.428c-0.357-0.502-0.555-0.913-0.591-1.234s0.145-0.606,0.537-0.857
	c0.394-0.25,0.768-0.447,1.126-0.59c0.358-0.144,0.768-0.286,1.233-0.429c0.464-0.145,0.768-0.25,0.91-0.321
	c1.002-0.717,1.288-1.218,0.858-1.502c-0.144-0.072-0.448-0.197-0.911-0.377c-0.464-0.178-0.875-0.34-1.232-0.481
	c-0.357-0.143-0.572-0.286-0.644-0.43c-0.215-0.285-0.215-0.785,0-1.501c0.213-0.716,0.144-1.216-0.215-1.501
	c-0.358,0.356-0.68,0.983-0.966,1.876c-0.287,0.894-0.535,1.483-0.751,1.77c0.502-0.644-0.394-0.857-2.681-0.644l-1.072,0.108
	c-0.287,0-0.855-0.072-1.716-0.216c-0.856-0.142-1.59-0.178-2.197-0.106c-0.608,0.071-1.089,0.357-1.447,0.857
	c-0.286,0.572-0.286,1.286,0,2.146c0.072,0.285,0.214,0.355,0.428,0.213c-0.286,0.214-0.679,0.555-1.179,1.019
	c-0.501,0.466-0.858,0.77-1.074,0.912c-3.287-1.073-6.647-2.537-10.079-4.397c0.43-0.072,0.858-0.035,1.287,0.107
	c0.357,0.143,0.821,0.376,1.394,0.698c0.571,0.321,0.93,0.519,1.073,0.588c2.43,1.001,3.933,1.253,4.503,0.752l0.536,0.535
	c1.002-1.144,1.716-2.036,2.146-2.681c-0.501,0.286-1.574,0.323-3.217,0.107c-1.432-0.428-2.218-0.857-2.359-1.286
	c0.499-0.858,0.68-1.501,0.534-1.931c-0.285,0.216-0.696,0.572-1.231,1.072c-0.537,0.501-1.055,0.895-1.556,1.18
	c-0.5,0.286-1.035,0.465-1.606,0.537c-1.146,0-1.932-0.036-2.36-0.107c-10.438-5.72-18.839-13.656-25.2-23.808
	c0.499-0.5,0.929-0.786,1.287-0.858c0.285-0.071,0.464-0.393,0.534-0.964c0.072-0.573,0.161-0.966,0.27-1.18
	c0.106-0.214,0.517-0.108,1.232,0.322c0.643-0.573,0.751-1.251,0.321-2.039c0.072,0.071,1.644-0.893,4.72-2.895
	c1.357-1.216,2.107-1.966,2.252-2.252c0.214-0.786-0.145-1.43-1.073-1.931c-0.072,0.144-0.394,0.465-0.965,0.965
	c-0.573,0.5-0.894,0.644-0.966,0.43c-0.214-0.357-0.197-1.02,0.054-1.984c0.25-0.964,0.625-1.413,1.126-1.34
	c-0.501,0-0.84-0.571-1.02-1.716c-0.179-1.145-0.268-2.413-0.268-3.806c0-1.395-0.034-2.235-0.106-2.521l0.214-0.106
	c-0.214-0.858-0.019-2.092,0.591-3.7c0.606-1.608,1.375-2.306,2.305-2.091c-0.93-0.214-0.213-1.751,2.143-4.611
	c0.432-0.572,0.718-0.893,0.86-0.964c0.215-0.144,0.644-0.411,1.288-0.805c0.642-0.393,1.179-0.75,1.607-1.072
	c0.427-0.321,0.786-0.697,1.071-1.126c0.286-0.357,0.644-1.161,1.073-2.413c0.429-1.251,0.928-2.091,1.501-2.519
	c-0.143-0.43,0.195-1.145,1.02-2.146c0.82-1.001,1.197-1.822,1.126-2.465c-0.073,0-0.16-0.036-0.269-0.108
	c-0.108-0.071-0.197-0.107-0.27-0.107c0.217-0.5,0.771-1.001,1.663-1.502c0.895-0.5,1.449-0.964,1.662-1.394
	c0.071-0.215,0.144-0.571,0.214-1.072c0.072-0.5,0.179-0.894,0.322-1.18s0.43-0.357,0.859-0.214c0.142,1.43-0.716,3.646-2.574,6.648
	c-1.073,1.788-1.682,2.825-1.824,3.11c-0.213,0.358-0.411,0.912-0.589,1.663c-0.18,0.75-0.34,1.269-0.483,1.555
	c0.144,0,0.356-0.054,0.644-0.161c0.286-0.107,0.59-0.232,0.911-0.375c0.321-0.144,0.592-0.287,0.805-0.428
	c0.215-0.144,0.287-0.25,0.215-0.323c-0.215-0.5-0.145-1.126,0.214-1.876c0.356-0.751,0.787-1.413,1.287-1.983
	c0.501-0.573,1.108-1.251,1.822-2.039c0.715-0.785,1.146-1.25,1.287-1.394c0.429-0.428,0.93-1.125,1.503-2.091
	c0.571-0.965,0.571-1.447,0-1.447c0.643,0,1.357-0.357,2.144-1.072c0.786-0.715,1.395-1.431,1.823-2.145
	c0.357-0.572,0.643-1.501,0.857-2.789c0.215-1.286,0.394-2.145,0.537-2.573c0.142-0.5,0.446-0.984,0.912-1.448
	c0.463-0.464,0.909-0.805,1.34-1.019l1.715-0.858c0,0,0.466-0.25,1.396-0.751c0.357-0.142,1.019-0.518,1.982-1.126
	c0.966-0.607,1.735-1.018,2.307-1.233c0.714-0.286,1.286-0.428,1.717-0.428c0.427,0,0.947,0.089,1.553,0.268
	c0.608,0.18,1.092,0.304,1.448,0.375c1.072,0.143,2.11-0.393,3.11-1.608c1.001-1.216,1.752-1.966,2.252-2.252
	c2.574-1.357,4.539-1.75,5.897-1.18c-0.142-0.071-0.125-0.339,0.054-0.804c0.179-0.464,0.465-1.018,0.859-1.662
	c0.393-0.643,0.713-1.163,0.965-1.555c0.249-0.394,0.445-0.697,0.589-0.911c0.357-0.43,1-0.966,1.932-1.609
	c0.93-0.644,1.572-1.18,1.931-1.609c0.428,0.287,0.679,0.607,0.749,0.965c-0.215-0.572,0.036-1.286,0.751-2.145
	c0.714-0.857,1.358-1.216,1.929-1.072c1.003,0.215,1.503,1.358,1.503,3.431c-2.217-1.073-3.969-0.429-5.255,1.931
	c0,0.071-0.09,0.268-0.268,0.589c-0.181,0.322-0.322,0.625-0.43,0.912c-0.106,0.285-0.196,0.589-0.267,0.911
	c-0.072,0.322-0.072,0.589,0,0.804c0.07,0.213,0.25,0.322,0.534,0.322c0.644,0,1,0.125,1.072,0.375c0.073,0.25,0,0.698-0.213,1.341
	c-0.216,0.644-0.358,1.108-0.43,1.394c-0.073,0.572-0.465,1.287-1.181,2.145c-0.714,0.858-1.145,1.394-1.287,1.608
	c-0.357-0.644-0.928-0.928-1.714-0.858c-0.787,0.071-1.357,0.393-1.718,0.966c0-0.072-0.053-0.269-0.16-0.59
	c-0.106-0.322-0.16-0.554-0.16-0.698c-0.93,0-1.467,0.036-1.609,0.107c0.072,0.215,0.161,0.841,0.27,1.877
	c0.105,1.037,0.23,1.841,0.375,2.413c0.071,0.286,0.268,0.714,0.588,1.286c0.323,0.573,0.591,1.09,0.806,1.555
	c0.213,0.465,0.357,0.911,0.429,1.341c0.07,0.428-0.09,0.769-0.482,1.019c-0.395,0.25-1.019,0.34-1.876,0.267
	c-1.36-0.07-2.288-0.785-2.789-2.144c-0.07-0.213-0.18-0.589-0.321-1.126c-0.144-0.537-0.322-0.947-0.536-1.234
	c-0.215-0.285-0.536-0.535-0.965-0.75c-0.501-0.214-1.358-0.287-2.575-0.214c-1.215,0.071-2.073,0.25-2.573,0.536
	c-0.929,0.571-1.733,1.609-2.413,3.11c-0.68,1.5-1.019,2.823-1.019,3.967c0,0.715,0.088,1.662,0.268,2.841
	c0.179,1.18,0.287,2.074,0.323,2.681c0.035,0.607-0.161,1.483-0.591,2.627c0.214,0.143,0.537,0.482,0.966,1.019
	c0.428,0.536,0.786,0.911,1.072,1.125c0.142,0.071,0.302,0.126,0.481,0.16c0.18,0.036,0.34,0.036,0.483,0
	c0.142-0.034,0.287,0.019,0.429,0.162c0.144,0.143,0.251,0.357,0.322,0.644c-0.071,0.071-0.215,0.178-0.43,0.322
	c-0.214,0.214-0.356,0.322-0.429,0.322c0.5-0.214,1.521-0.161,3.057,0.161c1.536,0.323,2.52,0.269,2.949-0.161
	c1.072-0.786,1.858-0.715,2.359,0.214c0,0.072-0.091,0.411-0.268,1.019c-0.18,0.607-0.198,1.09-0.055,1.447
	c0.356-1.93,1.395-2.251,3.11-0.964c0.213-0.214,0.767-0.394,1.662-0.537c0.893-0.142,1.519-0.321,1.876-0.535
	c0.214-0.143,0.465-0.34,0.751-0.59c0.286-0.25,0.482-0.41,0.589-0.483c0.108-0.071,0.286-0.053,0.537,0.053
	c0.249,0.108,0.555,0.34,0.911,0.697c0.715-1,1.143-1.857,1.287-2.572c0.786-2.86,1.466-4.434,2.038-4.719
	c0.5-0.215,0.894-0.286,1.178-0.215c0.287,0.071,0.448,0.411,0.482,1.019c0.037,0.608,0.037,1.108,0,1.502
	c-0.034,0.393-0.09,0.84-0.159,1.339l-0.106,0.858v1.93l-0.11,0.857c-1.071,0.215-1.733,0.644-1.981,1.288
	c-0.251,0.644-0.198,1.304,0.161,1.983c0.356,0.68,0.894,1.34,1.607,1.984c0.072,0.071,0.357,0.197,0.857,0.375
	c0.501,0.179,1.055,0.412,1.661,0.697c0.609,0.286,1.056,0.572,1.343,0.858c1.5,1.358,2.037,2.609,1.608,3.753
	c0.499,0,0.893,0.321,1.179,0.965c-0.071,0-0.25,0.107-0.536,0.322c-0.285,0.214-0.553,0.392-0.804,0.535
	c-0.251,0.143-0.412,0.215-0.483,0.215c0.645,0.357,0.716,0.929,0.214,1.716c0.356,0.214,0.627,0.607,0.805,1.18
	c0.179,0.571,0.446,0.929,0.805,1.072c0.644-0.858,1.394-0.93,2.251-0.216c0.501,0.573,0.536,1.144,0.108,1.716
	c0.356,0.5,1.09,0.875,2.197,1.126c1.107,0.25,1.771,0.589,1.985,1.019c0.499-0.144,0.786-0.073,0.856,0.214
	c0.072,0.286,0.106,0.715,0.106,1.286c0,0.572,0.108,1.001,0.324,1.288c0.286,0.356,0.82,0.679,1.607,0.963
	c0.787,0.287,1.251,0.466,1.395,0.537l1.823,1.179c0.213,0.287,0.213,0.43,0,0.43c1.286-0.144,2.395,0.25,3.323,1.179
	c0.715,0.787,0.502,1.501-0.644,2.145c0.216,0.429,0.107,0.769-0.321,1.02c-0.43,0.25-0.966,0.447-1.607,0.588
	c0.214,0.073,0.627,0.09,1.232,0.055c0.607-0.036,0.983,0.018,1.126,0.161c1.073,0.715,0.822,1.287-0.751,1.716
	C507.567,274.665,506.032,274.236,504.173,273.021z M486.692,178.974c14.728,2.574,27.274,9.33,37.641,20.268
	c-0.215,0.214-0.662,0.375-1.34,0.482c-0.681,0.107-1.128,0.232-1.342,0.376c-1.286,0.5-2.144,0.786-2.575,0.858
	c0.072,0.5-0.016,0.964-0.267,1.394c-0.251,0.428-0.538,0.751-0.858,0.965c-0.322,0.214-0.768,0.5-1.341,0.857
	c-0.571,0.357-0.966,0.608-1.179,0.751c-0.145,0.142-0.394,0.357-0.75,0.643c-0.358,0.286-0.608,0.483-0.753,0.589
	c-0.143,0.108-0.411,0.269-0.804,0.482c-0.393,0.214-0.696,0.287-0.912,0.214c-0.214-0.071-0.571-0.107-1.072-0.107l-0.321-0.107
	c-0.213-0.07-0.412-0.161-0.589-0.268c-0.179-0.107-0.376-0.215-0.591-0.322s-0.357-0.214-0.428-0.321
	c-0.073-0.108-0.073-0.198,0-0.269c-1.503,1.216-2.788,2.002-3.861,2.359c-0.357,0.072-0.751,0.268-1.18,0.59
	s-0.803,0.572-1.126,0.751c-0.321,0.177-0.678,0.231-1.072,0.161c-0.394-0.071-0.804-0.322-1.232-0.751
	c-0.357-0.357-0.572-0.894-0.645-1.608c-0.072-0.715-0.144-1.18-0.213-1.394c-0.503,0.357-0.503,0.982,0,1.877
	c0.5,0.894,0.572,1.555,0.213,1.983c-0.213,0.43-0.589,0.59-1.126,0.483c-0.537-0.109-0.966-0.27-1.287-0.483
	c-0.322-0.214-0.732-0.519-1.231-0.912c-0.501-0.392-0.824-0.625-0.966-0.697c-0.144-0.072-0.447-0.268-0.912-0.59
	c-0.465-0.321-0.768-0.59-0.912-0.804c-0.214-0.287-0.429-0.715-0.643-1.288c-0.214-0.571-0.394-0.964-0.537-1.179
	c-0.142,0.286-0.554,0.519-1.232,0.697c-0.68,0.178-1.02,0.375-1.02,0.591c0.144-0.715,0.286-1.966,0.43-3.754
	c0.143-1.787,0.321-3.146,0.536-4.075c0.501-2.216,0.071-3.932-1.287-5.147c-1.931-1.787-2.967-3.217-3.109-4.289
	c-0.287-1.573,0.143-2.503,1.287-2.788c0-0.5-0.287-1.233-0.858-2.199c-0.573-0.965-0.822-1.733-0.75-2.305
	C486.478,180.261,486.549,179.688,486.692,178.974z"/>
<path fill="#FFFFFF" d="M182.799,377.344c0,12.826,3.901,22.953,11.702,30.383c7.802,7.425,18.173,11.143,31.101,11.143h140.117
	c12.931,0,23.303-3.718,31.1-11.143c7.8-7.43,11.702-17.557,11.702-30.383c0-5.663-0.184-11.198-0.56-16.592
	c-0.379-5.398-1.124-11.224-2.244-17.478c-1.123-6.253-2.539-12.052-4.249-17.395c-1.707-5.349-4.006-10.553-6.893-15.633
	c-2.886-5.073-6.197-9.402-9.939-12.986c-3.743-3.577-8.309-6.437-13.705-8.577c-5.396-2.134-11.356-3.206-17.881-3.206
	c-0.961,0-3.206,1.153-6.729,3.448c-3.529,2.302-7.508,4.865-11.944,7.696c-4.435,2.83-10.202,5.394-17.312,7.694
	c-7.11,2.301-14.242,3.45-21.405,3.45c-7.16,0-14.296-1.149-21.403-3.45c-7.109-2.3-12.881-4.864-17.312-7.694
	c-4.434-2.832-8.421-5.395-11.947-7.696c-3.524-2.295-5.768-3.448-6.733-3.448c-6.516,0-12.477,1.072-17.876,3.206
	c-5.397,2.14-9.963,5-13.709,8.577c-3.739,3.583-7.054,7.913-9.939,12.986c-2.887,5.08-5.182,10.289-6.896,15.633
	c-1.706,5.343-3.123,11.142-4.246,17.395c-1.124,6.254-1.872,12.079-2.244,17.478C182.983,366.146,182.799,371.685,182.799,377.344z
	 M234.098,234.18c0,16.993,6.013,31.51,18.038,43.531c12.025,12.021,26.535,18.038,43.528,18.038
	c16.993,0,31.506-6.013,43.527-18.038c12.025-12.021,18.039-26.539,18.039-43.531c0-16.987-6.01-31.502-18.039-43.523
	c-12.021-12.022-26.534-18.041-43.527-18.041c-16.994,0-31.503,6.014-43.528,18.041C240.111,202.681,234.098,217.192,234.098,234.18
	z"/>
<path fill="#FFFFFF" d="M153.179,228.069v131.936c0,4.465-1.631,8.332-4.9,11.594c-3.261,3.266-7.125,4.896-11.59,4.896h-65.97
	c-4.468,0-8.331-1.631-11.592-4.896c-3.27-3.262-4.9-7.129-4.9-11.594V228.069c0-4.467,1.63-8.331,4.9-11.597
	c3.262-3.262,7.125-4.895,11.592-4.895h65.97c4.464,0,8.329,1.632,11.59,4.895C151.548,219.738,153.179,223.603,153.179,228.069z
	 M140.808,339.389v-90.706c0-1.114-0.405-2.082-1.225-2.899c-0.811-0.816-1.782-1.224-2.894-1.224h-65.97
	c-1.116,0-2.085,0.408-2.897,1.224c-0.819,0.817-1.226,1.785-1.226,2.899v90.706c0,1.116,0.406,2.083,1.226,2.897
	c0.812,0.816,1.781,1.226,2.897,1.226h65.97c1.112,0,2.083-0.409,2.894-1.226C140.402,341.472,140.808,340.505,140.808,339.389z
	 M116.074,230.13c0-1.374-0.691-2.061-2.067-2.061H93.398c-1.375,0-2.062,0.687-2.062,2.061c0,1.375,0.688,2.062,2.062,2.062h20.609
	C115.382,232.192,116.074,231.506,116.074,230.13z M110.986,367.279c2.013-2.013,3.021-4.44,3.021-7.274
	c0-2.836-1.008-5.261-3.021-7.283c-2.022-2.014-4.449-3.028-7.283-3.028c-2.833,0-5.262,1.015-7.279,3.028
	c-2.018,2.022-3.025,4.447-3.025,7.283c0,2.834,1.007,5.262,3.025,7.274c2.018,2.023,4.446,3.03,7.279,3.03
	C106.537,370.31,108.964,369.303,110.986,367.279z"/>
<g>
	<path fill="#FFFFFF" d="M297.748,585.496c-77.395,0-150.157-30.139-204.883-84.865S8,373.142,8,295.748
		c0-77.395,30.139-150.157,84.865-204.883S220.354,6,297.748,6c77.394,0,150.156,30.139,204.883,84.865
		s84.865,127.488,84.865,204.883c0,77.394-30.139,150.156-84.865,204.883S375.142,585.496,297.748,585.496z M297.748,16.68
		c-74.542,0-144.622,29.028-197.331,81.737S18.68,221.206,18.68,295.748c0,74.541,29.028,144.622,81.737,197.33
		c52.709,52.71,122.789,81.738,197.331,81.738c74.541,0,144.622-29.028,197.33-81.738c52.71-52.708,81.738-122.789,81.738-197.33
		c0-74.542-29.028-144.622-81.738-197.331C442.37,45.708,372.289,16.68,297.748,16.68z"/>
</g>
</svg>
